<svg width="56" height="70" viewBox="0 0 56 70" fill="none" xmlns="http://www.w3.org/2000/svg">
<path fill-rule="evenodd" clip-rule="evenodd" d="M3.92 21.9681C2.11887 24.7241 0 25.3191 0 25.3191V31.5159V31.6489V37.8456C0 37.8456 8.07022 37.7554 10.8267 35.6116C13.1071 33.838 14.9387 31.7052 16.6818 29.6755C19.9658 25.8515 22.9355 22.3935 28 22.3935C33.0985 22.3935 36.3106 26.0134 39.7336 29.8711C41.5155 31.8792 43.3546 33.9518 45.5467 35.6116C48.477 37.8304 56 37.8456 56 37.8456V31.6489V31.5159V25.3191C56 25.3191 53.7285 24.4524 52.36 22.3404C51.0678 20.3461 49.8892 18.4109 48.7668 16.5681C42.9708 7.05209 38.6757 0 28 0C17.3701 0 12.422 8.12702 7.07958 16.9017C6.05517 18.5843 5.01625 20.2906 3.92 21.9681ZM55.4471 31.5263C54.0673 31.1934 50.4834 30.1575 49.0933 28.1117C47.4667 25.7178 46.0086 23.3501 44.6274 21.1073C39.5596 12.8782 35.5268 6.32979 28 6.32979C20.3047 6.32979 16.3351 12.9958 12.1974 19.944C10.623 22.5878 9.02423 25.2725 7.18667 27.6463C5.10925 30.33 1.90663 31.2615 0.593045 31.5421C2.01847 31.5749 5.68504 31.4744 7.93333 29.7472C9.91413 28.2256 11.6255 26.3597 13.3304 24.5009C17.2166 20.2637 21.0687 16.0637 28 16.0637C35.8745 16.0637 39.9852 20.956 43.4706 25.104C44.9111 26.8185 46.2448 28.4058 47.6933 29.468C50.2358 31.3325 54.0365 31.5239 55.4471 31.5263ZM11.1067 37.1775C7.15592 38.5107 0 37.9787 0 37.9787V44.4947V51.0106V57.5266V63.6702V70H56V63.6702V57.5266V51.0106V44.4947V37.9787C56 37.9787 48.5967 38.64 45.4533 37.4202C43.2061 36.5482 41.3436 35.3033 39.5002 34.0713C36.266 31.9095 33.0907 29.7872 28 29.7872C22.6778 29.7872 19.4762 32.0298 16.4728 34.1335C14.741 35.3465 13.0752 36.5133 11.1067 37.1775ZM0 57.5266C0 57.5266 11.0526 57.4947 15.96 57.1543C17.9411 57.0168 19.6742 56.6667 21.3813 56.3219L21.3814 56.3219C23.4881 55.8963 25.5552 55.4787 28 55.4787C31.0609 55.4787 33.0536 55.9179 35.1767 56.3859C36.8378 56.752 38.5787 57.1357 40.9733 57.3404C43.1325 57.525 47.5461 57.5618 51.034 57.5581C47.6866 57.5726 43.4029 57.5769 40.6933 57.5266C38.7114 57.4898 36.8013 57.3704 34.8975 57.2514L34.8973 57.2514C32.6263 57.1095 30.3642 56.9681 28 56.9681C26.0495 56.9681 23.8414 57.1113 21.651 57.2534H21.651H21.6509H21.6509H21.6508H21.6508L21.6507 57.2534C19.7419 57.3772 17.8465 57.5001 16.1467 57.5266C10.4638 57.6153 0 57.5266 0 57.5266ZM0 44.4947C0 44.4947 8.75937 44.8389 12.2267 43.5638C14.5519 42.7088 16.5903 41.3908 18.5694 40.1112C21.5832 38.1627 24.4592 36.3032 28 36.3032C31.8468 36.3032 34.576 38.0975 37.5561 40.0569C39.4431 41.2976 41.4308 42.6044 43.8667 43.5638C45.4873 44.2021 48.8101 44.4249 51.5693 44.4936C48.4819 44.4625 44.6114 44.3551 42.84 44.0293C40.3482 43.5709 38.4484 42.9183 36.6607 42.3042C34.0377 41.4032 31.656 40.5851 28 40.5851C24.1536 40.5851 21.2178 41.5678 18.0929 42.6137C16.0424 43.3001 13.9106 44.0136 11.3867 44.4947C8.4236 45.0594 0 44.4947 0 44.4947ZM43.68 50.7314C45.8273 51.1167 50.3161 51.1217 53.2415 51.0763C49.7352 51.1481 43.8587 51.2265 41.5333 51.0106C38.9376 50.7697 37.155 50.3465 35.4727 49.9472C33.3171 49.4354 31.3261 48.9628 28 48.9628C24.9805 48.9628 22.7892 49.414 20.4904 49.8873L20.4904 49.8874C18.7199 50.2519 16.8856 50.6297 14.56 50.8245C13.4306 50.9191 11.7733 50.975 9.97763 51.0066C11.0635 50.9478 12.0674 50.8597 12.88 50.7314C15.0984 50.3812 17.1914 49.6837 19.2644 48.9929C22.1221 48.0407 24.9419 47.1011 28 47.1011C31.5796 47.1011 34.3351 48.0107 37.2502 48.9731C39.2195 49.6232 41.2617 50.2974 43.68 50.7314ZM34.0012 63.3762C35.3985 63.4929 36.8702 63.6158 39.2933 63.6702H16.1467C18.227 63.63 19.9454 63.5085 21.635 63.3891C23.6171 63.249 25.5596 63.1117 28 63.1117C30.8343 63.1117 32.3669 63.2397 34.0012 63.3762Z" fill="black"/>
</svg>
