<svg width="160" height="34" viewBox="0 0 160 34" fill="none" xmlns="http://www.w3.org/2000/svg">
<path fill-rule="evenodd" clip-rule="evenodd" d="M32 0.000414289C56.006 -0.0121674 53.1667 33.9001 80 34.0004C106.833 34.1007 103.949 -0.0877303 128 0.000414289C152.051 0.0885589 160 0.000414289 160 0.000414289H0C0 0.000414289 7.99396 0.012996 32 0.000414289Z" fill="black"/>
<path fill-rule="evenodd" clip-rule="evenodd" d="M90.079 12.0932C90.8562 11.3083 92.1225 11.3022 92.9074 12.0795C93.6922 12.8567 93.6983 14.123 92.921 14.9079C88.6129 19.2579 84.1708 21.5005 79.6156 21.5005C75.1981 21.5005 70.8157 19.391 66.4778 15.291L66.1061 14.9347C65.314 14.1649 65.2959 12.8987 66.0658 12.1066C66.8356 11.3145 68.1018 11.2965 68.8939 12.0663C72.6659 15.7323 76.2363 17.5005 79.6156 17.5005C82.878 17.5005 86.2467 15.8513 89.7405 12.4298L90.079 12.0932Z" fill="#F5FF7D"/>
</svg>
