<svg width="44" height="44" viewBox="0 0 44 44" fill="none" xmlns="http://www.w3.org/2000/svg">
<path d="M0.5 22C0.5 10.1259 10.1259 0.5 22 0.5C33.8741 0.5 43.5 10.1259 43.5 22C43.5 33.8741 33.8741 43.5 22 43.5C10.1259 43.5 0.5 33.8741 0.5 22Z" fill="#F5FF7D" stroke="black"/>
<rect opacity="0.01" x="8" y="10" width="24" height="24" fill="white"/>
<path fill-rule="evenodd" clip-rule="evenodd" d="M29.4936 16.2386C29.3848 13.8912 27.4478 12.022 25.0734 12.022H20.1894L19.9806 12.0268C17.6276 12.1358 15.7544 14.0766 15.7544 16.456V17.389H17.2544V16.456L17.2594 16.2835C17.3486 14.7429 18.6256 13.522 20.1894 13.522H25.0734L25.2453 13.5269C26.781 13.6159 27.9984 14.8889 27.9984 16.447V27.587L27.9934 27.7594C27.9041 29.3 26.6263 30.522 25.0634 30.522H20.1784L20.0066 30.517C18.472 30.428 17.2544 29.1543 17.2544 27.597V26.655H15.7544V27.597L15.7595 27.8113C15.8713 30.1552 17.8072 32.022 20.1784 32.022H25.0634L25.2721 32.0171C27.6245 31.9081 29.4984 29.9662 29.4984 27.587V16.447L29.4936 16.2386ZM20.3555 19.6372L21.414 18.5744L24.8756 22.0218L21.414 25.4692L20.3555 24.4064L21.9963 22.7718H11.7715V21.2718H21.9961L20.3555 19.6372Z" fill="black"/>
</svg>
