<svg width="24" height="24" viewBox="0 0 24 24" fill="none" xmlns="http://www.w3.org/2000/svg">
<rect opacity="0.01" width="24" height="24" fill="white"/>
<path fill-rule="evenodd" clip-rule="evenodd" d="M21.4936 6.23864C21.3848 3.89119 19.4478 2.02197 17.0734 2.02197H12.1894L11.9806 2.0268C9.62755 2.13576 7.75438 4.07656 7.75438 6.45597V7.38897H9.25438V6.45597L9.25936 6.28353C9.34859 4.74295 10.6256 3.52197 12.1894 3.52197H17.0734L17.2453 3.52694C18.781 3.61588 19.9984 4.88889 19.9984 6.44697V17.587L19.9934 17.7594C19.9041 19.3 18.6263 20.522 17.0634 20.522H12.1784L12.0066 20.517C10.472 20.428 9.25438 19.1543 9.25438 17.597V16.655H7.75438V17.597L7.75949 17.8113C7.87131 20.1552 9.80715 22.022 12.1784 22.022H17.0634L17.2721 22.0171C19.6244 21.9081 21.4984 19.9662 21.4984 17.587V6.44697L21.4936 6.23864ZM12.3555 9.63719L13.414 8.57435L16.8756 12.0218L13.414 15.4692L12.3555 14.4064L13.9963 12.7718H3.77148V11.2718H13.9961L12.3555 9.63719Z" fill="black"/>
</svg>
