<svg width="266" height="374" viewBox="0 0 266 374" fill="none" xmlns="http://www.w3.org/2000/svg">
<path fill-rule="evenodd" clip-rule="evenodd" d="M128.552 19.9084C128.552 8.9133 119.638 0 108.643 0C97.6481 0 88.7348 8.91332 88.7348 19.9085V354.04C88.7348 365.035 97.6481 373.948 108.643 373.948C119.638 373.948 128.552 365.035 128.552 354.04V19.9084ZM64.2758 0C75.271 0 84.1843 8.9133 84.1843 19.9084V354.04C84.1843 365.035 75.271 373.948 64.2758 373.948C53.2807 373.948 44.3674 365.035 44.3674 354.04V19.9085C44.3674 8.91332 53.2807 0 64.2758 0ZM19.9084 0C30.9036 0 39.8169 8.9133 39.8169 19.9084V354.04C39.8169 365.035 30.9036 373.948 19.9084 373.948C8.9133 373.948 -3.05176e-05 365.035 -3.05176e-05 354.04V19.9085C-3.05176e-05 8.91332 8.9133 0 19.9084 0ZM151.882 4.92369C162.502 2.07812 173.418 8.38039 176.263 19.0002L264.569 348.56C267.414 359.18 261.112 370.096 250.492 372.941C239.872 375.787 228.957 369.485 226.111 358.865L137.806 29.3049C134.96 18.6851 141.262 7.76926 151.882 4.92369Z" fill="black"/>
</svg>
