<svg width="460" height="560" viewBox="0 0 460 560" fill="none" xmlns="http://www.w3.org/2000/svg">
<path fill-rule="evenodd" clip-rule="evenodd" d="M43.3199 0C19.395 0 0 19.395 0 43.32V418.944C0 442.869 19.395 462.264 43.3199 462.264C67.2449 462.264 86.6398 442.869 86.6398 418.944V43.3199C86.6398 19.395 67.2449 0 43.3199 0ZM416.68 97.7358C392.755 97.7358 373.36 117.131 373.36 141.056V516.68C373.36 540.605 392.755 560 416.68 560C440.605 560 460 540.605 460 516.68V141.056C460 117.131 440.605 97.7358 416.68 97.7358ZM96.7002 39.9321C96.7002 28.8197 105.709 19.8113 116.821 19.8113C127.933 19.8113 136.942 28.8197 136.942 39.932V461.955C136.942 473.067 127.933 482.075 116.821 482.075C105.709 482.075 96.7002 473.067 96.7002 461.955V39.9321ZM343.179 79.2453C332.067 79.2453 323.058 88.2537 323.058 99.366V521.389C323.058 532.501 332.067 541.509 343.179 541.509C354.291 541.509 363.3 532.501 363.3 521.389V99.366C363.3 88.2536 354.291 79.2453 343.179 79.2453ZM144.99 51.6951C144.99 45.0277 150.395 39.6226 157.062 39.6226C163.73 39.6226 169.135 45.0277 169.135 51.6951V489.814C169.135 496.482 163.73 501.887 157.062 501.887C150.395 501.887 144.99 496.482 144.99 489.814V51.6951ZM302.938 59.434C296.27 59.434 290.865 64.839 290.865 71.5064V509.626C290.865 516.293 296.27 521.698 302.938 521.698C309.605 521.698 315.01 516.293 315.01 509.626V71.5064C315.01 64.839 309.605 59.434 302.938 59.434ZM178.189 65.1555C178.189 61.2661 181.342 58.1132 185.231 58.1132C189.121 58.1132 192.274 61.2661 192.274 65.1555V513.335C192.274 517.224 189.121 520.377 185.231 520.377C181.342 520.377 178.189 517.224 178.189 513.335V65.1555ZM274.769 39.6226C270.879 39.6226 267.726 42.7756 267.726 46.6649V494.845C267.726 498.734 270.879 501.887 274.769 501.887C278.658 501.887 281.811 498.734 281.811 494.845V46.6649C281.811 42.7756 278.658 39.6226 274.769 39.6226ZM201.328 84.7785C201.328 81.7226 203.805 79.2453 206.861 79.2453C209.917 79.2453 212.394 81.7226 212.394 84.7785V535.976C212.394 539.032 209.917 541.509 206.861 541.509C203.805 541.509 201.328 539.032 201.328 535.976V84.7785ZM253.139 19.8113C250.083 19.8113 247.606 22.2886 247.606 25.3445V476.542C247.606 479.598 250.083 482.075 253.139 482.075C256.195 482.075 258.672 479.598 258.672 476.542V25.3445C258.672 22.2886 256.195 19.8113 253.139 19.8113ZM221.449 100.251C221.449 98.8619 222.575 97.7358 223.964 97.7358C225.353 97.7358 226.479 98.8619 226.479 100.251V557.485C226.479 558.874 225.353 560 223.964 560C222.575 560 221.449 558.874 221.449 557.485V100.251ZM236.036 0C234.647 0 233.521 1.12603 233.521 2.51507V459.749C233.521 461.138 234.647 462.264 236.036 462.264C237.425 462.264 238.551 461.138 238.551 459.749V2.51509C238.551 1.12604 237.425 0 236.036 0Z" fill="black"/>
</svg>
