<svg width="499" height="611" viewBox="0 0 499 611" fill="none" xmlns="http://www.w3.org/2000/svg">
<path d="M318.486 121.838C315.081 124.289 311.383 126.304 307.478 127.836C303.347 129.508 298.982 130.529 294.538 130.862C287.996 131.529 281.387 130.752 275.178 128.584C259.005 122.475 247.328 108.188 244.56 91.1223C244.777 90.8403 245.015 90.5366 245.265 90.2113C256.198 77.1093 262.13 72.0117 271.935 65.5258C293.692 75.9596 310.493 99.0833 318.465 121.773L318.486 121.838Z" fill="white"/>
<path fill-rule="evenodd" clip-rule="evenodd" d="M274.99 129.093C279.852 130.81 284.976 131.668 290.132 131.63C291.612 131.642 293.091 131.567 294.562 131.404C299.069 131.074 303.496 130.04 307.682 128.338C311.631 126.792 315.369 124.755 318.809 122.274L319.108 121.971L318.976 121.594C310.086 96.2903 292.151 74.619 272.17 65.0371L271.893 64.9042L271.637 65.0737C262.219 71.3032 256.117 76.3608 244.835 89.8812L243.989 90.9754L244.024 91.2041C246.825 108.464 258.634 122.912 274.99 129.093ZM275.367 128.076C259.456 122.064 247.941 108.046 245.132 91.2703L245.682 90.5586C256.759 77.2839 262.797 72.2406 271.978 66.1488C291.516 75.6385 309.05 96.8522 317.841 121.638C314.56 123.954 311.012 125.867 307.273 127.334C303.182 128.981 298.863 129.99 294.465 130.324C288.012 130.97 281.495 130.203 275.367 128.076Z" fill="black"/>
<path d="M497.651 222.717C496.079 243.769 489.712 262.229 482.966 278.953C483.725 276.545 482.391 269.43 463.736 262.858C458.118 260.873 446.914 257.695 440.298 259.018C440.189 257.261 440.048 255.472 439.886 253.66V253.649C447.38 237.825 457.445 210.439 449.614 196.513C442.575 184.029 429.842 182.662 420.753 182.641C415.012 170.296 407.719 158.735 399.05 148.237C394.331 142.551 386.859 135.472 386.729 135.352C402.911 134.495 420.384 135.168 434.549 137.608C454.462 141.036 472.231 151.152 482.784 162.99C501.036 183.467 498.822 207.109 497.651 222.717Z" fill="white"/>
<path fill-rule="evenodd" clip-rule="evenodd" d="M482.529 279.274C482.631 279.413 482.793 279.495 482.966 279.495C483.188 279.495 483.387 279.361 483.469 279.156C489.848 263.342 496.585 244.276 498.192 222.757L498.266 221.763L498.266 221.762C499.439 206.266 501.211 182.847 483.189 162.63C471.848 149.907 453.7 140.354 434.641 137.074C421.093 134.74 403.619 133.915 386.701 134.81C386.483 134.823 386.293 134.964 386.22 135.169C386.146 135.375 386.202 135.604 386.363 135.752C386.432 135.816 393.919 142.905 398.632 148.584C407.217 158.976 414.447 170.416 420.151 182.629L420.264 182.873C420.353 183.062 420.543 183.183 420.752 183.183C430.414 183.207 442.372 184.773 449.142 196.779C457.744 212.076 443.856 243.998 439.395 253.417C439.354 253.509 439.336 253.609 439.345 253.709C439.52 255.649 439.654 257.397 439.756 259.052C439.766 259.208 439.843 259.352 439.967 259.448C440.091 259.543 440.25 259.58 440.403 259.55C447.909 258.051 461.004 262.469 463.556 263.369C484.691 270.816 482.55 278.468 482.449 278.79C482.397 278.955 482.427 279.134 482.529 279.274ZM463.917 262.346C461.697 261.562 451.623 258.162 443.885 258.162C442.853 258.155 441.821 258.228 440.8 258.379C440.705 256.924 440.585 255.395 440.437 253.751C457.746 217.145 452.954 201.345 450.087 196.247C443.051 183.769 430.26 182.159 421.102 182.1C415.363 169.83 408.093 158.335 399.467 147.891C395.714 143.369 390.179 137.924 388.012 135.83C404.462 135.043 421.319 135.879 434.457 138.143C453.282 141.382 471.197 150.806 482.379 163.351C500.094 183.225 498.343 206.367 497.185 221.681L497.109 222.676V222.676C495.596 242.954 489.481 261.071 483.438 276.314C482.601 273.075 478.783 267.584 463.917 262.346Z" fill="black"/>
<path d="M474.739 267.19C469.324 264.164 463.533 261.867 457.517 260.358C451.99 258.859 445.886 257.476 440.153 258.484C439.918 258.549 439.755 258.763 439.755 259.007C440.005 263.038 440.104 267.062 440.14 271.099C440.161 273.483 443.193 274.178 445.132 275.056C450.634 277.426 456.35 279.263 462.203 280.542C467.309 281.756 472.94 283.053 478.222 282.288C480.119 282.013 482.407 281.367 483.326 279.498C483.328 279.45 483.348 279.404 483.38 279.369C485.524 274.273 478.165 269.201 474.739 267.19Z" fill="black"/>
<path d="M472.77 324.897C471.089 327.077 469.007 326.589 468.139 325.092C467.261 323.595 467.402 321.046 467.608 319.333C468.627 310.862 468.422 307.206 464.528 299.625C468.041 310.297 465.601 320.851 461.729 330.125C461.267 331.473 460.485 332.69 459.452 333.671C458.362 334.639 456.773 334.796 455.514 334.062C453.92 332.901 454.256 330.482 454.669 328.552C456.389 319.891 456.59 310.997 455.262 302.267C455.36 310.694 453.204 320.515 448.855 327.738C447.584 330.073 445.814 332.098 443.671 333.671C442.109 334.702 439.81 335.233 438.541 333.866C437.337 332.587 437.857 330.526 438.465 328.866C441.252 321.231 444.634 311.882 444.699 303.758C443.548 309.598 441.588 315.249 438.877 320.548C438.086 322.312 436.737 323.768 435.037 324.691C433.28 325.439 430.807 324.712 430.363 322.869C430.972 322.283 431.491 321.611 431.903 320.873C431.98 320.718 432.049 320.558 432.109 320.396C436.545 310.363 440.547 293.649 440.677 272.077L440.688 272.066C443.586 267.984 446.01 263.584 447.911 258.953C453.305 259.713 458.608 261.021 463.736 262.858C467.435 264.11 471.008 265.708 474.408 267.63C473.551 272.321 473.116 277.08 473.107 281.849C473.092 285.965 473.448 290.074 474.17 294.127C474.81 297.652 475.872 301.101 476.371 304.658C477.326 311.556 475.84 320.385 472.77 324.897Z" fill="white"/>
<path fill-rule="evenodd" clip-rule="evenodd" d="M438.143 334.235C438.779 334.9 439.67 335.262 440.59 335.228C441.798 335.186 442.971 334.803 443.971 334.123C446.178 332.503 448.004 330.419 449.32 328.018C452.617 322.189 454.692 315.749 455.42 309.092C455.868 315.569 455.436 322.077 454.138 328.439C453.655 330.703 453.401 333.195 455.199 334.503C456.658 335.378 458.515 335.211 459.796 334.091C460.901 333.055 461.736 331.765 462.23 330.333C466.105 321.05 467.484 312.772 466.393 305.209C467.87 309.526 467.812 313.099 467.07 319.269C466.733 322.061 466.936 324.112 467.67 325.364C468.16 326.247 469.057 326.827 470.063 326.912C471.326 326.917 472.506 326.284 473.2 325.229C473.207 325.22 473.213 325.211 473.219 325.202C476.319 320.646 477.904 311.782 476.909 304.583C476.622 302.538 476.145 300.508 475.684 298.543L475.675 298.504C475.331 297.04 474.975 295.526 474.704 294.029C473.986 290.009 473.633 285.932 473.649 281.849C473.656 277.112 474.089 272.386 474.942 267.727C474.982 267.502 474.878 267.277 474.681 267.162C471.251 265.225 467.647 263.613 463.917 262.347C458.748 260.508 453.408 259.191 447.976 258.415C447.733 258.384 447.5 258.522 447.409 258.75C445.525 263.32 443.136 267.665 440.285 271.703C440.189 271.803 440.136 271.936 440.135 272.074C439.976 298.453 434.122 314.501 431.6 320.207C431.543 320.362 431.484 320.497 431.43 320.608C431.044 321.3 430.557 321.93 429.986 322.479C429.848 322.613 429.791 322.809 429.836 322.996C430.073 323.907 430.704 324.665 431.557 325.063C432.713 325.631 434.056 325.677 435.248 325.19C437.065 324.228 438.508 322.687 439.35 320.812C440.987 317.74 442.319 314.515 443.329 311.184C441.983 317.144 440.187 322.993 437.955 328.68C437.35 330.335 436.709 332.711 438.143 334.235ZM444.754 303.218C444.736 303.217 444.717 303.216 444.699 303.216C444.441 303.216 444.218 303.398 444.168 303.652C443.019 309.434 441.079 315.03 438.404 320.283C437.668 321.941 436.412 323.314 434.825 324.192C433.925 324.552 432.916 324.516 432.044 324.094C431.572 323.874 431.195 323.493 430.981 323.018C431.532 322.447 432.005 321.807 432.39 321.113C432.47 320.951 432.542 320.785 432.605 320.615C437.95 308.526 441.086 290.91 441.219 272.259C444.014 268.284 446.374 264.021 448.257 259.542C453.467 260.325 458.591 261.607 463.556 263.369C467.1 264.576 470.531 266.095 473.807 267.909C472.987 272.511 472.571 277.175 472.564 281.849C472.549 285.998 472.907 290.139 473.636 294.224C473.912 295.747 474.272 297.275 474.619 298.753L474.621 298.763C475.079 300.713 475.553 302.728 475.835 304.732C476.781 311.574 475.243 320.285 472.331 324.578C471.848 325.329 471.028 325.796 470.135 325.829C469.489 325.768 468.916 325.388 468.607 324.818C468.186 324.1 467.764 322.576 468.146 319.398C469.197 310.663 468.913 306.976 465.01 299.377C464.881 299.125 464.58 299.015 464.319 299.124C464.057 299.233 463.925 299.525 464.013 299.794C466.918 308.62 466.007 318.472 461.23 329.913C460.799 331.178 460.073 332.321 459.112 333.249C458.208 334.053 456.896 334.203 455.833 333.624C454.542 332.683 454.788 330.589 455.198 328.669C456.93 319.944 457.134 310.984 455.799 302.189C455.758 301.906 455.505 301.704 455.22 301.726C454.936 301.749 454.717 301.988 454.72 302.274C454.823 311.153 452.397 320.804 448.392 327.459C447.156 329.72 445.443 331.686 443.372 333.219C441.924 334.172 439.937 334.574 438.935 333.494C437.91 332.404 438.467 330.438 438.974 329.053L438.98 329.037C441.742 321.469 445.176 312.056 445.242 303.762C445.244 303.482 445.033 303.247 444.754 303.218Z" fill="black"/>
<path d="M309.159 142.76C305.59 144.691 302.348 142.522 299.647 139.072C297.752 136.46 296.045 133.716 294.538 130.862C298.969 130.449 303.323 129.43 307.478 127.836L311.133 137.055C311.664 138.595 311.122 141.708 309.159 142.76Z" fill="black"/>
<path d="M432.109 320.396C433.302 316.947 429.907 310.266 427.987 307.305C416.404 289.593 396.306 281.459 372.63 279.908C367.391 279.561 347.087 278.834 336.491 278.563C330.12 278.426 323.803 277.363 317.738 275.407C308.584 272.042 300.617 263.209 294.482 254.855C293.874 254.028 293.883 252.9 294.503 252.083C296.428 249.32 298.106 246.393 299.517 243.335C273.074 246.372 244.365 241.48 217.619 221.86C207.792 214.647 196.165 203.693 189.799 193.292C190.862 195.103 194.918 194.105 196.859 193.292C210.645 187.478 229.332 166.003 224.853 160.265C231.079 167.142 256.556 198.704 291.708 200.916C299.156 201.371 306.629 200.591 313.823 198.606C315.987 183.82 316.246 168.816 314.593 153.964C314.773 154.284 314.98 154.589 315.211 154.875C317.434 157.695 324.94 158.476 334.755 154.029C344.907 149.43 353.443 140.287 357.868 128.704C358.562 126.871 360.135 118.736 355.905 115.537C373.096 121.589 390.981 137.554 402.066 152.012C413.342 166.868 422.207 183.409 428.335 201.025C447.608 256.914 440.645 301.068 432.109 320.396Z" fill="white"/>
<path fill-rule="evenodd" clip-rule="evenodd" d="M431.667 320.711C431.769 320.854 431.933 320.938 432.109 320.938C432.323 320.938 432.518 320.811 432.604 320.615C442.33 298.594 447.182 254.015 428.846 200.848C422.692 183.181 413.799 166.589 402.495 151.682C392.653 138.844 374.593 121.541 356.085 115.025C355.833 114.936 355.554 115.045 355.427 115.28C355.301 115.515 355.365 115.808 355.578 115.969C359.442 118.892 358.088 126.593 357.361 128.51C353.051 139.794 344.73 148.916 334.532 153.535C325.106 157.803 317.762 157.238 315.633 154.535C315.421 154.271 315.231 153.991 315.064 153.697C314.937 153.471 314.667 153.368 314.422 153.45C314.176 153.531 314.022 153.776 314.055 154.032C315.69 168.718 315.448 183.553 313.335 198.177C306.303 200.074 299.01 200.816 291.741 200.375C259.131 198.323 234.752 170.663 226.739 161.573L226.738 161.572C226.162 160.918 225.666 160.356 225.255 159.902C225.06 159.685 224.727 159.662 224.504 159.85C224.28 160.038 224.245 160.369 224.425 160.599C225.057 161.409 225.159 162.663 224.727 164.326C222.651 172.307 208.389 187.841 196.649 192.792C194.562 193.666 191.122 194.344 190.29 193.056L190.261 193.008C190.106 192.755 189.775 192.673 189.52 192.826C189.265 192.979 189.18 193.309 189.33 193.566C189.34 193.583 189.351 193.599 189.361 193.616C189.365 193.622 189.369 193.628 189.373 193.635C196.098 204.591 208.202 215.621 217.298 222.298C241.299 239.904 268.647 247.199 298.593 243.983C297.306 246.696 295.793 249.296 294.071 251.755C293.301 252.762 293.289 254.157 294.044 255.176C302.235 266.329 309.924 273.112 317.55 275.915C323.668 277.901 330.046 278.975 336.477 279.105C347.262 279.381 367.471 280.109 372.595 280.449C398.37 282.137 416.853 291.272 427.532 307.599C429.741 311.008 432.647 317.181 431.596 320.219C431.539 320.384 431.565 320.568 431.667 320.711ZM299.976 243.047C299.877 242.889 299.704 242.792 299.517 242.793C299.496 242.793 299.476 242.794 299.455 242.796C269.402 246.247 241.979 239.057 217.94 221.423C209.406 215.159 198.207 205.039 191.401 194.794C193.344 194.922 195.289 194.578 197.07 193.791C208.152 189.118 223.443 173.567 225.777 164.599C225.968 163.901 226.068 163.181 226.073 162.458C234.307 171.799 258.813 199.389 291.673 201.458C299.182 201.914 306.715 201.127 313.968 199.129C314.176 199.071 314.33 198.895 314.36 198.681C316.421 184.484 316.756 170.09 315.358 155.812C318.294 158.389 325.635 158.756 334.979 154.523C345.435 149.786 353.963 140.446 358.375 128.896C358.856 127.628 360.389 120.915 357.803 116.826C375.353 123.778 392.253 140.104 401.635 152.342C412.868 167.156 421.705 183.644 427.821 201.201C445.298 251.88 441.617 294.651 432.786 317.345C432.26 313.736 429.944 309.325 428.441 307.008C417.565 290.378 398.799 281.078 372.666 279.366C367.533 279.026 347.299 278.297 336.505 278.02C330.192 277.895 323.932 276.843 317.925 274.897C310.506 272.17 302.98 265.509 294.919 254.534C294.45 253.902 294.457 253.035 294.936 252.41C296.88 249.618 298.576 246.66 300.004 243.572C300.086 243.404 300.076 243.206 299.976 243.047Z" fill="black"/>
<path d="M357.652 116.59C356.247 114.627 353.925 113.531 351.516 113.694C347.873 113.705 344.309 114.755 341.242 116.721L314.6 139.724L314.468 139.895C311.808 145.315 311.938 151.614 314.784 155.212C316.013 156.767 318.573 157.732 322.088 157.732C326.563 157.574 330.956 156.48 334.983 154.522C345.439 149.782 353.964 140.444 358.371 128.9C358.826 127.708 360.533 120.774 357.652 116.59Z" fill="black"/>
<path d="M358.215 127.511C358.127 127.916 358.011 128.315 357.868 128.704C353.443 140.287 344.907 149.43 334.755 154.029C330.936 155.872 326.788 156.937 322.553 157.164C320.512 151.446 317.857 145.965 314.636 140.819C311.955 136.382 308.667 132.343 304.867 128.817C305.778 128.535 306.678 128.22 307.568 127.873C311.492 126.382 315.195 124.364 318.576 121.876C318.858 122.667 319.039 123.411 319.289 124.203C319.875 126.036 320.59 128.053 322.304 128.964C325.298 130.537 328.768 127.565 330.102 124.496C332.043 119.765 332.144 114.48 330.384 109.68C331.924 113.096 333.768 117.109 335.363 120.352C336.1 121.849 337.196 123.552 338.888 123.574C339.788 123.504 340.637 123.129 341.295 122.511C342.996 121.109 344.261 119.25 344.94 117.153C349.007 121.041 353.454 124.512 358.215 127.511Z" fill="white"/>
<path fill-rule="evenodd" clip-rule="evenodd" d="M322.043 157.345L322.174 157.715L322.566 157.706C326.873 157.472 331.091 156.391 334.979 154.523C345.435 149.786 353.962 140.446 358.371 128.906C358.525 128.492 358.649 128.067 358.743 127.635L358.834 127.249L358.494 127.045C353.768 124.063 349.352 120.617 345.311 116.758L344.695 116.179L344.426 116.98C343.78 118.98 342.575 120.754 340.953 122.09C340.395 122.631 339.669 122.963 338.895 123.031C337.792 123.017 336.824 122.09 335.848 120.113C334.515 117.399 332.843 113.813 330.879 109.457L329.882 109.885C331.582 114.551 331.483 119.682 329.605 124.279C328.793 126.227 327.258 127.786 325.322 128.627C324.424 128.981 323.416 128.929 322.558 128.485C321.075 127.697 320.41 125.931 319.806 124.04C319.717 123.757 319.637 123.481 319.558 123.207C319.553 123.187 319.547 123.168 319.541 123.148L319.531 123.113C319.395 122.643 319.26 122.177 319.087 121.694L318.842 121.004L318.254 121.439C314.912 123.9 311.25 125.894 307.37 127.368C306.492 127.71 305.596 128.023 304.707 128.299L303.79 128.583L304.505 129.221C308.273 132.708 311.529 136.71 314.178 141.108C317.374 146.223 320.011 151.667 322.043 157.345ZM315.096 140.531C312.548 136.322 309.463 132.462 305.92 129.047L305.92 129.047C306.539 128.839 307.155 128.616 307.761 128.38C311.497 126.96 315.037 125.068 318.294 122.751C318.351 122.939 318.405 123.126 318.459 123.313C318.473 123.358 318.486 123.404 318.499 123.449C318.586 123.751 318.674 124.055 318.772 124.368L318.774 124.372C319.285 125.971 320.055 128.383 322.052 129.444C323.177 130.026 324.498 130.101 325.683 129.65C327.907 128.715 329.674 126.94 330.6 124.711C331.889 121.549 332.4 118.123 332.088 114.722C333.134 116.981 334.067 118.946 334.876 120.592C335.616 122.092 336.836 124.09 338.887 124.116C339.912 124.046 340.883 123.628 341.638 122.931C343.205 121.648 344.419 119.987 345.165 118.105C349.002 121.702 353.162 124.937 357.594 127.768C357.531 128.02 357.454 128.268 357.362 128.511C353.051 139.794 344.73 148.916 334.532 153.535C330.892 155.278 326.956 156.32 322.931 156.608C320.89 150.989 318.264 145.6 315.096 140.531Z" fill="black"/>
<path d="M276.491 146.524C274.957 147.873 272.785 148.223 270.905 147.424C269.05 146.621 267.441 145.342 266.241 143.715C256.057 130.482 247.434 111.285 241.274 95.2438C242.185 94.2677 242.977 93.1722 244.56 91.1223C247.196 108.454 259.528 123.118 275.178 128.584C275.938 128.845 276.697 129.094 277.467 129.3C278.812 135.179 279.918 143.183 276.491 146.524Z" fill="black"/>
<path d="M294.104 130.895C294.712 134.322 295.048 140.569 292.944 143.552C292 145.1 290.396 146.128 288.595 146.339C285.688 146.459 283.475 143.801 282.033 141.263C280.233 138.096 278.909 133.617 277.553 129.333C282.93 130.853 288.538 131.382 294.104 130.895Z" fill="black"/>
<path d="M303.519 30.5367C298.345 30.8078 290.894 33.1505 284.809 35.2221C272.044 39.5605 249.397 50.7753 230.157 71.502C229.755 71.9249 229.365 72.3371 228.996 72.7709C227.488 60.9597 227.575 49.7666 232.12 38.7145C235.544 30.87 240.403 23.734 246.447 17.6733C259.961 3.98569 274.548 -1.27907 285.821 1.08806C296.063 3.23861 295.69 11.0125 295.796 14.6148C295.903 17.4867 296.568 20.3105 297.754 22.9285C299.143 25.8273 301.104 28.4152 303.519 30.5367Z" fill="white"/>
<path fill-rule="evenodd" clip-rule="evenodd" d="M228.458 72.8396L228.614 74.0582L229.41 73.1219C229.772 72.6955 230.155 72.2909 230.553 71.871C252.749 47.9627 277.827 38.1679 284.985 35.7355C290.939 33.7082 298.43 31.3463 303.548 31.0783L304.787 31.0132L303.897 30.1478C301.53 28.0715 299.608 25.5378 298.246 22.6991C297.094 20.1472 296.447 17.3967 296.339 14.5991L296.325 14.0303L296.325 14.0291C296.246 10.3475 296.081 2.68838 285.933 0.55754C273.824 -1.98555 258.918 4.27049 246.062 17.2926C239.96 23.3965 235.06 30.5935 231.618 38.5084C226.516 50.9151 227.25 63.3726 228.458 72.8396ZM246.833 18.0541C257.594 7.15517 269.77 1.0829 280.413 1.0829C282.193 1.07819 283.968 1.2578 285.71 1.61884C295.015 3.57302 295.157 10.1341 295.241 14.0536L295.254 14.6308C295.359 17.577 296.041 20.474 297.263 23.1572C298.481 25.7681 300.188 28.1214 302.292 30.0896C297.129 30.6208 290.212 32.8101 284.635 34.7086C277.417 37.1617 252.127 47.038 229.763 71.1285C229.637 71.2612 229.512 71.3933 229.388 71.5246C228.292 62.3489 227.824 50.5873 232.621 38.9215C236.008 31.1363 240.829 24.0574 246.833 18.0541Z" fill="black"/>
<path d="M286.122 119.202C285.829 119.202 285.59 118.969 285.581 118.676C285.572 118.383 285.798 118.137 286.09 118.119C289.222 117.689 291.966 115.804 293.491 113.035C296.183 108.066 293.48 102.856 292.193 100.846C292.089 100.683 292.08 100.476 292.169 100.304C292.258 100.132 292.432 100.021 292.625 100.012C292.818 100.003 293.002 100.098 293.106 100.261C294.497 102.433 297.412 108.075 294.444 113.552C292.73 116.64 289.655 118.735 286.154 119.201L286.122 119.202Z" fill="black"/>
<path d="M270.272 114.7C268.496 114.699 266.834 113.821 265.833 112.355C264.261 109.949 264.755 106.484 265.084 104.191L265.117 103.956C265.159 103.66 265.433 103.453 265.73 103.495C266.026 103.538 266.233 103.812 266.191 104.109L266.157 104.344C265.853 106.476 265.392 109.698 266.741 111.762C267.553 112.95 268.909 113.647 270.347 113.615C271.793 113.566 273.134 112.847 273.974 111.669C274.086 111.51 274.275 111.424 274.468 111.442C274.661 111.46 274.83 111.58 274.911 111.756C274.991 111.933 274.971 112.139 274.858 112.297C273.816 113.753 272.157 114.641 270.368 114.699L270.272 114.7Z" fill="black"/>
<path fill-rule="evenodd" clip-rule="evenodd" d="M263.838 92.0573C264.723 92.8508 265.889 93.2566 267.075 93.1838L267.157 93.1832C268.781 93.1636 272.017 92.5493 275.427 88.6521C280.083 83.3318 279.447 79.0803 277.953 77.6498C277.101 76.8999 275.972 76.5441 274.844 76.6701C271.452 77.1224 268.343 78.7987 266.101 81.3835L266.09 81.3951C261.935 86.5491 262.28 90.3594 263.838 92.0573ZM264.637 91.3233C263.617 90.2128 262.954 87.0167 266.93 82.082C268.983 79.7317 271.81 78.1959 274.899 77.7536C275.728 77.6477 276.564 77.8944 277.203 78.4336C278.22 79.4065 278.923 83.0098 274.611 87.9382C271.478 91.5177 268.588 92.0812 267.144 92.0986C266.239 92.1745 265.341 91.8966 264.637 91.3233Z" fill="black"/>
<path d="M225.283 159.932C224.645 159.125 223.702 158.617 222.677 158.528C219.573 158.154 215.141 160.648 212.862 162.453L191.74 183.532C190.236 185.39 187.54 190.495 189.33 193.563C190.015 194.491 191.146 194.979 192.291 194.842C193.932 194.778 195.549 194.421 197.065 193.789C208.146 189.119 223.441 173.571 225.777 164.602C226.3 162.594 226.134 161.023 225.283 159.932Z" fill="black"/>
<path d="M313.823 199.148C313.553 199.148 313.323 198.949 313.286 198.682C313.248 198.414 313.413 198.16 313.673 198.085C326.64 194.147 338.301 186.775 347.419 176.75C347.547 176.603 347.744 176.536 347.935 176.574C348.126 176.613 348.282 176.751 348.343 176.936C348.404 177.121 348.361 177.324 348.23 177.469C338.974 187.646 327.137 195.13 313.973 199.127C313.924 199.141 313.874 199.148 313.823 199.148Z" fill="black"/>
<path d="M299.516 243.877C299.229 243.876 298.992 243.653 298.976 243.367C298.959 243.081 299.167 242.831 299.452 242.796C307.631 241.779 315.71 240.073 323.602 237.695C341.436 232.407 358.141 221.047 368.289 207.308C368.404 207.152 368.594 207.07 368.786 207.091C368.979 207.113 369.145 207.236 369.222 207.413C369.3 207.591 369.277 207.796 369.162 207.952C358.878 221.875 341.962 233.382 323.912 238.736C315.961 241.13 307.822 242.849 299.581 243.874C299.559 243.876 299.537 243.877 299.516 243.877Z" fill="black"/>
<path d="M428.441 307.008C425.186 302.028 421.124 297.625 416.422 293.98L416.088 293.72L415.754 293.982C406.639 301.16 393.092 309.987 378.588 318.199L377.664 318.723L378.63 319.165C388.633 323.705 399.321 326.553 410.258 327.593C411.888 327.721 413.443 327.785 414.924 327.784C423.841 327.784 429.963 325.48 432.378 321.137L432.383 321.125C434.238 317.602 430.616 310.351 428.441 307.008Z" fill="black"/>
<path d="M315.254 274.344C298.942 289.105 276.523 314.582 266.816 334.376H266.805C253.237 341.649 241.522 351.943 232.564 364.463C234.311 361.296 231.491 353.823 225.102 345.645C218.714 337.467 205.005 325.873 196.404 321.459C191.61 319.007 182.575 315.417 178.53 318.595C193.074 301.524 209.907 286.198 229.3 274.908C248.085 263.953 270.688 255.808 293.898 254.051L294.115 254.062C294.18 254.349 294.305 254.619 294.484 254.853C300.048 262.435 307.141 270.428 315.254 274.344Z" fill="#F5FF7D"/>
<path d="M314.871 273.96C302.99 284.801 292.092 296.672 282.304 309.434C277.372 315.717 272.895 322.344 268.905 329.264C268.172 330.564 267.525 332.567 266.734 333.651C266.102 334.517 263.792 335.425 262.609 336.13C250.612 343.28 240.224 352.833 232.096 364.189L233.033 364.737C235.439 359.72 230.663 352.613 228.008 348.706C223.624 342.575 218.443 337.057 212.601 332.296C207.372 327.828 201.776 323.419 195.546 320.43C190.842 318.173 183.178 314.713 178.256 318.127L178.913 318.979C207.58 285.452 246.127 259.27 290.96 254.85C291.611 254.786 292.265 254.721 292.918 254.671C295.607 254.466 293.075 254.366 294.016 255.127C294.863 256.035 295.615 257.028 296.258 258.09C297.952 260.259 299.722 262.371 301.605 264.38C305.411 268.621 309.94 272.153 314.98 274.812C315.603 275.123 316.153 274.188 315.528 273.875C311.237 271.646 307.335 268.739 303.972 265.265C300.713 262.007 296.539 257.985 294.584 253.788C294.487 253.621 294.308 253.519 294.115 253.519C290.366 253.332 286.239 254.268 282.538 254.87C277.865 255.631 273.238 256.625 268.658 257.852C260.055 260.163 251.661 263.192 243.565 266.905C227.524 274.344 212.704 284.173 199.613 296.059C191.978 302.963 184.807 310.364 178.146 318.212C177.773 318.648 178.263 319.438 178.803 319.064C183.723 315.652 192.08 319.765 196.652 322.2C202.089 325.264 207.179 328.906 211.834 333.063C216.795 337.134 221.304 341.727 225.282 346.762C227.462 349.561 229.32 352.596 230.822 355.81C231.886 358.174 233.324 361.629 232.096 364.189C231.958 364.447 232.048 364.767 232.3 364.915C232.553 365.062 232.876 364.983 233.033 364.737C239.73 355.381 247.997 347.256 257.467 340.722C258.952 339.697 260.462 338.712 262 337.768C262.95 337.184 265.745 334.918 266.816 334.918C267.009 334.92 267.188 334.817 267.284 334.65C273.048 323.022 280.956 312.463 289.225 302.515C297.371 292.649 306.197 283.363 315.638 274.727C316.155 274.257 315.387 273.492 314.871 273.96Z" fill="black"/>
<path d="M225.531 345.312C219.039 337 205.273 325.403 196.65 320.978C193.261 319.24 181.864 313.941 177.516 318.782C175.273 321.279 176.501 326.376 180.503 331.176L220.463 365.453C222.287 366.924 224.55 367.746 226.893 367.788C229.038 367.834 231.101 366.961 232.562 365.389C235.343 362.324 232.518 354.255 225.531 345.312Z" fill="black"/>
<path d="M379.129 319.139C392.034 311.811 404.774 303.953 416.473 294.792C417.022 294.362 416.25 293.6 415.706 294.025C404.083 303.126 391.402 310.922 378.581 318.203C378.334 318.359 378.255 318.683 378.403 318.936C378.55 319.188 378.871 319.278 379.129 319.139Z" fill="black"/>
<path d="M332.629 352.641C333.139 355.491 336.967 364.005 340.396 369.975C341.53 371.926 341.188 374.398 339.568 375.968C329.359 385.792 305.881 399.838 288.671 404.382C286.794 404.866 284.809 404.188 283.62 402.658C278.025 395.537 271.357 387.027 267.554 379.333C262.67 369.75 260.791 358.916 262.163 348.248C264.571 328.411 294.744 292.901 315.254 274.344C316.062 274.743 316.891 275.098 317.738 275.407C323.803 277.363 330.12 278.426 336.491 278.563C347.087 278.834 367.391 279.561 372.63 279.908C389.538 281.014 404.625 285.483 416.089 294.398C399.462 307.5 368.432 325.786 346.458 334.799C334.202 339.821 331.285 345.016 332.629 352.641Z" fill="#F5FF7D"/>
<path fill-rule="evenodd" clip-rule="evenodd" d="M283.194 402.992C284.218 404.306 285.79 405.077 287.456 405.082C287.913 405.082 288.368 405.023 288.809 404.906C306.246 400.302 329.753 386.166 339.944 376.358C341.744 374.616 342.124 371.871 340.866 369.706C337.47 363.791 333.655 355.291 333.164 352.546C331.974 345.802 333.818 340.564 346.664 335.301C367.82 326.624 399.114 308.465 416.426 294.824C416.557 294.721 416.633 294.563 416.632 294.396C416.631 294.229 416.554 294.072 416.422 293.97C405.484 285.464 390.763 280.55 372.666 279.366C367.533 279.026 347.299 278.297 336.505 278.02C330.192 277.895 323.931 276.843 317.923 274.897C317.095 274.595 316.284 274.248 315.494 273.857C315.295 273.758 315.055 273.792 314.889 273.942C302.717 285.132 291.541 297.36 281.488 310.488C273.191 321.392 263.009 336.783 261.626 348.182C260.251 358.955 262.147 369.892 267.068 379.573C270.928 387.384 277.729 396.039 283.194 402.992ZM262.702 348.313C265.081 328.716 295.414 293.101 315.347 274.991C316.075 275.338 316.815 275.648 317.55 275.915C323.669 277.901 330.046 278.975 336.477 279.105C347.262 279.381 367.471 280.109 372.595 280.449C390.167 281.598 404.499 286.292 415.205 294.403C397.854 307.942 367.109 325.742 346.253 334.297C334.569 339.085 330.599 344.255 332.096 352.735V352.737C332.613 355.629 336.418 364.137 339.925 370.246C340.935 371.98 340.633 374.179 339.192 375.577C329.096 385.292 305.808 399.296 288.532 403.858C286.865 404.287 285.102 403.684 284.047 402.323L284.034 402.306C278.603 395.394 271.848 386.797 268.04 379.093C263.214 369.601 261.354 358.876 262.702 348.313Z" fill="black"/>
<path d="M381.219 434.257C377.846 438.129 373.79 441.795 365.384 448.574C358.869 453.653 351.701 457.834 344.072 461.003C328.269 442.912 308.302 421.057 291.567 403.541C308.953 398.14 331.263 384.43 340.428 375.114C352.543 394.181 368.096 416.003 381.219 434.257Z" fill="white"/>
<path fill-rule="evenodd" clip-rule="evenodd" d="M343.663 461.361L343.917 461.651L344.275 461.507C351.952 458.314 359.166 454.106 365.725 448.996C374.203 442.158 378.217 438.529 381.628 434.613L381.911 434.29L381.66 433.941C368.289 415.343 353.009 393.904 340.885 374.822L340.519 374.247L340.041 374.734C331.209 383.711 309.063 397.537 291.405 403.023L290.57 403.283L291.174 403.916C307.813 421.332 327.926 443.343 343.663 461.361ZM344.226 460.355C328.706 442.598 308.999 421.027 292.559 403.795V403.795C309.915 398.194 331.256 384.907 340.333 375.975C352.337 394.816 367.342 415.88 380.528 434.223C377.22 437.965 373.232 441.548 365.045 448.15C358.671 453.116 351.671 457.219 344.226 460.355Z" fill="black"/>
<path d="M430.374 497.684C430.029 498.086 429.72 498.518 429.452 498.975C422.131 510.439 407.564 519.365 393.844 522.239C393.451 522.324 393.071 522.463 392.716 522.652C376.968 503.682 360.308 484.029 343.28 466.144C342.537 465.365 342.228 464.268 342.453 463.216C342.679 462.163 343.411 461.29 344.408 460.884C351.908 457.714 358.96 453.575 365.384 448.574C373.736 441.849 377.792 438.183 381.154 434.333C381.824 433.566 382.811 433.154 383.827 433.218C384.842 433.282 385.771 433.814 386.339 434.658C401.783 457.934 415.265 477.402 430.374 497.684Z" fill="#F5FF7D"/>
<path fill-rule="evenodd" clip-rule="evenodd" d="M392.299 522.998C392.401 523.123 392.554 523.195 392.716 523.194C392.805 523.195 392.892 523.173 392.97 523.131C393.28 522.966 393.612 522.845 393.955 522.771C408.417 519.741 422.865 510.296 429.962 499.183C430.199 498.782 430.471 498.403 430.774 498.05C430.95 497.858 430.964 497.569 430.809 497.36C416.612 478.302 403.447 459.46 386.79 434.358C386.138 433.374 385.064 432.753 383.887 432.679C382.694 432.596 381.532 433.076 380.745 433.975C377.42 437.785 373.312 441.495 365.045 448.15C358.657 453.115 351.651 457.227 344.202 460.383C343.04 460.857 342.186 461.875 341.923 463.103C341.66 464.33 342.021 465.609 342.887 466.518C360.208 484.71 376.872 504.414 392.299 522.998ZM381.561 434.69C382.081 434.095 382.834 433.753 383.625 433.754C383.687 433.754 383.751 433.756 383.813 433.76C384.654 433.813 385.421 434.256 385.886 434.958C402.455 459.927 415.571 478.707 429.683 497.665C429.444 497.974 429.231 498.31 428.995 498.681L428.994 498.683C422.097 509.482 407.928 518.735 393.731 521.709C393.434 521.773 393.144 521.864 392.864 521.982C377.5 503.479 360.915 483.88 343.674 465.771C343.054 465.121 342.796 464.207 342.984 463.328C343.173 462.45 343.784 461.723 344.616 461.385C352.16 458.188 359.256 454.023 365.725 448.996C374.046 442.295 378.19 438.551 381.561 434.69Z" fill="black"/>
<path d="M344.216 461.526C352.114 458.292 359.51 453.947 366.181 448.623C371.58 444.283 377.017 439.859 381.603 434.64C382.062 434.118 381.298 433.348 380.836 433.873C376.586 438.477 371.962 442.721 367.01 446.561C360.039 452.306 352.262 456.995 343.928 460.48C343.292 460.743 343.57 461.792 344.216 461.526Z" fill="black"/>
<path d="M456.859 524.17C456.344 524.635 455.908 525.181 455.569 525.786C452.402 530.255 448.356 535.363 442.445 542.174C423.757 563.736 400.688 578.866 374.386 594.669C373.48 595.177 372.657 595.82 371.946 596.578C369.702 594.209 368.013 591.371 367 588.27C365.016 581.274 370.026 574.929 375.623 570.287C385.514 562.109 389.777 555.905 390.612 540.2C390.818 536.404 390.58 531.166 390.428 526.665C390.342 524.556 391.783 522.691 393.844 522.239C407.564 519.365 422.13 510.439 429.452 498.975C429.877 498.095 430.568 497.371 431.426 496.903C433.432 496.101 435.251 497.969 436.697 499.311C443.546 505.672 449.605 512.936 456.859 524.17Z" fill="white"/>
<path fill-rule="evenodd" clip-rule="evenodd" d="M371.538 596.935L371.945 597.402L372.354 596.936C373.028 596.22 373.808 595.612 374.666 595.134C399.512 580.207 423.421 564.951 442.855 542.531C448.479 536.048 452.66 530.828 456.009 526.102C456.114 525.956 456.215 525.804 456.314 525.654L456.325 525.637C456.543 525.247 456.831 524.9 457.173 524.612L457.597 524.313L457.315 523.875C450.351 513.092 444.295 505.627 437.066 498.914L436.81 498.674C435.385 497.342 433.433 495.519 431.225 496.399C430.258 496.904 429.476 497.703 428.994 498.683C422.097 509.482 407.928 518.735 393.733 521.709C391.409 522.207 389.784 524.308 389.886 526.682L389.95 528.526L389.953 528.59C390.091 532.503 390.247 536.925 390.071 540.172C389.233 555.904 385.024 561.811 375.276 569.87C367.83 576.045 364.788 582.458 366.478 588.417C367.526 591.59 369.252 594.497 371.538 596.935ZM431.627 497.406C431.877 497.306 432.143 497.254 432.413 497.254C433.702 497.254 434.945 498.416 436.064 499.462L436.069 499.467L436.328 499.708C443.398 506.275 449.343 513.578 456.149 524.069C455.875 524.369 455.63 524.695 455.418 525.041C455.404 525.062 455.391 525.083 455.377 525.103C455.296 525.227 455.214 525.351 455.126 525.473C451.797 530.171 447.636 535.365 442.035 541.82C422.706 564.12 398.875 579.323 374.108 594.204C373.339 594.647 372.622 595.173 371.969 595.773C369.964 593.565 368.449 590.957 367.522 588.122C365.935 582.528 368.777 576.669 375.968 570.706C385.779 562.595 390.3 556.269 391.153 540.23C391.333 536.921 391.181 532.641 391.034 528.5L391.034 528.488L390.97 526.644C390.887 524.798 392.148 523.161 393.955 522.771C408.417 519.741 422.865 510.296 429.932 499.23C430.301 498.466 430.892 497.83 431.627 497.406Z" fill="black"/>
<path d="M468.001 533.198C466.441 530.689 464.575 528.385 462.445 526.338C461.996 525.863 461.545 525.388 461.083 524.891C459.019 522.878 457.572 523.075 456.724 523.598C456.178 523.977 455.727 524.476 455.405 525.057C455.314 525.196 455.224 525.335 455.129 525.468C451.842 530.115 447.683 535.312 442.039 541.823C422.701 564.133 398.871 579.331 374.105 594.204C371.195 595.952 370.038 597.699 370.352 599.867C370.72 601.567 371.518 603.143 372.671 604.445C373.925 606.198 375.471 607.722 377.24 608.953C378.281 609.642 379.502 610.008 380.75 610.007C381.899 609.979 383.034 609.75 384.104 609.332C407.491 596.794 436.653 574.041 453.443 555.229C460.297 547.55 464.221 542.822 467.991 536.724C468.621 535.634 468.625 534.292 468.001 533.198Z" fill="black"/>
<path d="M174.527 438.519C158.164 461.548 143.513 483.455 128.627 503.563C128.241 503.233 127.785 502.996 127.293 502.869C111.675 498.758 95.7748 485.417 89.9938 474.213C101.875 454.773 115.939 429.275 128.649 407.673C129.913 405.525 133.183 405.569 134.69 406.947C144.517 415.938 161.079 428.313 173.248 433.584C174.154 433.989 174.826 434.784 175.075 435.744C175.324 436.704 175.123 437.726 174.527 438.519Z" fill="#F5FF7D"/>
<path fill-rule="evenodd" clip-rule="evenodd" d="M128.275 503.974C128.373 504.059 128.498 504.105 128.628 504.105C128.648 504.105 128.669 504.104 128.689 504.102C128.839 504.084 128.974 504.006 129.064 503.886C138.209 491.532 147.182 478.62 156.681 464.951L156.686 464.943L156.783 464.803C162.639 456.377 168.693 447.666 174.969 438.834V438.833C175.665 437.869 175.886 436.642 175.57 435.495C175.269 434.415 174.495 433.529 173.464 433.087C161.742 428.009 145.269 415.892 135.056 406.546C133.969 405.647 132.547 405.262 131.155 405.49C129.924 405.636 128.828 406.339 128.182 407.398C123.029 416.157 117.57 425.699 112.292 434.928C104.574 448.423 96.5928 462.376 89.5313 473.931C89.4327 474.093 89.4255 474.294 89.5122 474.463C95.0951 485.283 110.702 499.063 127.156 503.393C127.568 503.5 127.951 503.699 128.275 503.974ZM127.431 502.344C111.407 498.127 96.2094 484.802 90.6169 474.235C97.6467 462.717 105.569 448.866 113.234 435.467L113.261 435.419C118.529 426.208 123.975 416.685 129.116 407.948C129.598 407.174 130.409 406.663 131.316 406.562C132.385 406.382 133.479 406.668 134.324 407.347C144.604 416.753 161.201 428.957 173.033 434.083C173.766 434.391 174.317 435.02 174.526 435.788C174.753 436.619 174.591 437.508 174.085 438.206V438.205C167.771 447.092 161.683 455.852 155.796 464.323C146.41 477.83 137.539 490.595 128.511 502.808C128.176 502.601 127.812 502.444 127.431 502.344Z" fill="black"/>
<path d="M173.786 434.586C173.571 434.371 173.317 434.201 173.037 434.085C161.201 428.957 144.604 416.753 134.324 407.347C133.637 406.762 132.749 406.467 131.849 406.524L131.827 405.439C133.004 405.392 134.155 405.786 135.055 406.545C145.27 415.892 161.742 428.009 173.464 433.087C173.871 433.258 174.24 433.507 174.553 433.819L173.786 434.586Z" fill="black"/>
<path d="M173.408 434.274C173.288 434.201 173.164 434.137 173.035 434.083C161.201 428.957 144.604 416.753 134.324 407.347C133.987 407.036 133.574 406.819 133.127 406.719L133.347 405.657C133.984 405.797 134.572 406.103 135.053 406.543C145.27 415.892 161.742 428.009 173.464 433.087C173.641 433.162 173.813 433.251 173.977 433.351L173.408 434.274Z" fill="black"/>
<path d="M129.679 506.654C126.442 519.886 119.17 533.606 115.113 537.543C102.145 533.126 89.558 527.66 77.4776 521.198C58.3716 510.819 34.3431 487.109 21.1761 472.099C18.9961 469.615 16.4255 466.871 13.3453 466.209L13.4429 465.873C15.0481 462.066 21.1869 460.157 26.0459 461.784C29.9613 463.096 33.4754 466.166 36.9353 468.454C44.6468 473.563 53.1344 477.809 62.6511 478.302C69.5703 478.661 78.8116 475.743 85.6772 472.554C87.2866 471.838 89.1737 472.53 89.9396 474.116C95.6771 485.363 111.632 498.747 127.293 502.869C128.986 503.271 130.046 504.953 129.679 506.654Z" fill="white"/>
<path fill-rule="evenodd" clip-rule="evenodd" d="M114.946 538.059L115.258 538.159L115.492 537.932C119.882 533.669 127.108 519.443 130.206 506.783C130.642 504.795 129.409 502.823 127.431 502.344C111.177 498.067 95.8503 484.508 90.422 473.869C89.5291 472.017 87.3217 471.215 85.4481 472.062C79.0083 475.054 69.6346 478.116 62.68 477.761C52.2598 477.22 43.1679 471.932 37.2343 468.002C36.3181 467.396 35.3977 466.735 34.4678 466.065C31.9681 464.071 29.1887 462.455 26.2189 461.269C20.9791 459.519 14.6516 461.609 12.922 465.722L12.6635 466.617L13.2323 466.74C16.0963 467.354 18.5261 469.901 20.7684 472.456C32.3145 485.619 57.1967 510.798 77.2194 521.675C89.3282 528.154 101.946 533.634 114.946 538.059ZM21.5839 471.74C19.3702 469.219 16.9723 466.703 14.0574 465.832C15.6981 462.493 21.3276 460.781 25.8735 462.298C28.7387 463.453 31.4204 465.019 33.8343 466.947L33.8431 466.953C34.7827 467.628 35.7119 468.295 36.6358 468.906C42.6753 472.907 51.9389 478.289 62.6228 478.843C71.6396 479.326 82.7228 474.524 85.9067 473.045C87.2513 472.448 88.8269 473.033 89.456 474.363C94.9924 485.213 110.607 499.039 127.157 503.394C128.563 503.722 129.45 505.112 129.153 506.525C125.911 519.774 118.814 532.943 114.964 536.924C102.139 532.533 89.6898 527.115 77.7363 520.722C57.8481 509.917 33.0824 484.85 21.5839 471.74Z" fill="black"/>
<path fill-rule="evenodd" clip-rule="evenodd" d="M89.4487 567.037C90.1194 567.125 90.7952 567.169 91.4717 567.168C95.7172 567.16 99.7997 565.533 102.888 562.619C104.912 560.793 106.128 558.238 106.269 555.515C106.185 552.99 105.049 550.615 103.135 548.964V548.963C97.7611 543.781 90.2833 539.654 83.0523 535.664C78.3585 533.218 73.8255 530.475 69.481 527.451C67.2902 525.827 65.1065 524.235 62.9387 522.655L62.7796 522.539L62.7761 522.536C51.6963 514.462 41.2307 506.835 31.9597 496.661C30.463 495.018 28.9781 493.302 27.5429 491.642C23.769 487.004 19.576 482.722 15.017 478.852C12.8542 477.132 9.55273 474.871 5.93034 475.162C2.0474 475.467 0.274328 478.141 0 484.142C0.256323 494.249 6.20466 501.793 11.9899 507.838C16.9977 513.071 22.9948 517.335 28.7948 521.458C30.4101 522.606 32.0243 523.755 33.6183 524.923C45.9249 533.938 55.0317 542.016 62.2808 550.344C70.8336 560.17 79.9743 565.786 89.4487 567.037ZM6.01509 476.242C6.19729 476.228 6.37841 476.221 6.55844 476.221C9.60252 476.221 12.4358 478.183 14.3413 479.701C18.8477 483.529 22.9921 487.764 26.722 492.352C28.1625 494.017 29.6517 495.738 31.1589 497.392C40.5037 507.647 51.0124 515.306 62.1386 523.415L62.1399 523.416C64.3588 525.032 66.5927 526.66 68.835 528.322C73.2174 531.375 77.7911 534.145 82.528 536.613C89.6976 540.569 97.1108 544.661 102.383 549.745V549.744C104.079 551.194 105.094 553.285 105.185 555.515C105.042 557.943 103.945 560.217 102.133 561.839C98.7732 565.01 94.1764 566.52 89.5906 565.961C80.3864 564.747 71.4734 559.253 63.0985 549.632C55.7954 541.242 46.6325 533.111 34.2602 524.048C32.7081 522.911 31.138 521.794 29.5675 520.677L29.424 520.575L29.4099 520.565C23.6555 516.473 17.7054 512.242 12.7737 507.088C7.13252 501.193 1.3314 493.852 1.08355 484.153C1.37165 477.887 3.26334 476.459 6.01509 476.242Z" fill="black"/>
<path d="M102.51 562.229C99.0352 565.523 94.2688 567.091 89.5167 566.502C83.3562 565.689 73.6273 562.554 62.6946 549.984C54.2672 540.309 44.2888 532.066 33.9418 524.485C26.5448 519.062 18.7249 514.083 12.38 507.467C6.0459 500.84 0.785599 493.639 0.546987 484.127C0.5418 482.179 0.929114 480.249 1.68582 478.454C2.45038 476.776 4.12537 475.698 5.96998 475.699C9.18086 475.457 12.163 477.272 14.6793 479.279C15.4819 479.918 16.2628 480.569 17.022 481.253C22.3366 486.014 26.4932 491.987 31.5557 497.023C65.6533 530.94 92.7813 540.417 102.326 548.953C102.478 549.083 102.619 549.224 102.76 549.354C107.738 554.159 105.612 559.235 102.51 562.229Z" fill="white"/>
<path fill-rule="evenodd" clip-rule="evenodd" d="M89.4465 567.04C90.1131 567.127 90.7847 567.17 91.4569 567.169C95.7074 567.162 99.7953 565.534 102.888 562.618C104.912 560.793 106.128 558.24 106.271 555.518C106.185 552.988 105.046 550.609 103.128 548.957L102.989 548.826L102.985 548.822C102.886 548.728 102.785 548.633 102.687 548.549C99.6438 545.826 94.8122 542.997 88.6949 539.414L88.685 539.408L88.6799 539.405C75.366 531.607 55.2469 519.824 31.9385 496.639C29.7386 494.45 27.67 492.036 25.6702 489.702C23.1051 486.574 20.3375 483.617 17.3853 480.85C16.6831 480.217 15.9078 479.565 15.017 478.855C12.8616 477.137 9.59402 474.902 5.92821 475.158C3.90313 475.207 2.07659 476.388 1.20004 478.214C0.407667 480.089 0.000979505 482.105 0.00423077 484.14C0.258428 494.244 6.20465 501.791 11.9888 507.843C16.9892 513.057 22.9746 517.315 28.763 521.431C30.3889 522.587 32.0147 523.744 33.6204 524.922C45.9249 533.938 55.0338 542.014 62.286 550.339C70.8357 560.17 79.9733 565.789 89.4465 567.04ZM6.01081 476.241C6.18875 476.227 6.36564 476.221 6.54147 476.221H6.54148C9.60462 476.221 12.4379 478.186 14.3413 479.702C15.2151 480.399 15.9735 481.038 16.6598 481.656C19.5769 484.391 22.3116 487.315 24.8462 490.407L24.8685 490.433C26.8761 492.776 28.9513 495.197 31.1737 497.407C54.5815 520.692 74.7739 532.518 88.1354 540.343L88.1374 540.344L88.1551 540.355C94.2158 543.905 99.0032 546.708 101.972 549.364C102.054 549.435 102.133 549.509 102.211 549.582L102.242 549.612L102.382 549.745C104.08 551.195 105.096 553.287 105.186 555.518C105.042 557.945 103.945 560.217 102.133 561.838C98.772 565.009 94.1747 566.521 89.5874 565.964C80.3853 564.749 71.4744 559.253 63.1037 549.627C55.7975 541.24 46.6324 533.111 34.2623 524.047C32.6523 522.867 31.0223 521.707 29.3911 520.547C23.644 516.46 17.702 512.233 12.7716 507.093C7.13248 501.192 1.33348 493.848 1.08776 484.152C1.08443 482.251 1.46598 480.369 2.20943 478.619C2.93484 477.18 4.39973 476.264 6.01081 476.241Z" fill="black"/>
<path d="M115.279 537.022C104.263 533.458 88.3884 527.038 77.7543 520.733C59.6963 510.023 35.8277 487.98 21.5839 471.74C18.6585 468.404 15.4364 465.168 11.3332 465.55C7.90463 465.862 4.48984 470.135 1.18414 478.25L2.17235 478.696C2.86266 477.198 4.36215 476.239 6.01183 476.24C9.28257 475.988 12.3245 478.096 14.3412 479.703C18.3916 483.138 22.1176 486.938 25.4721 491.055C27.3024 493.168 29.1962 495.351 31.1652 497.399C54.1779 521.329 74.6995 532.944 88.2792 540.631C94.5697 544.19 99.5383 547.003 102.382 549.745C104.08 551.195 105.096 553.288 105.186 555.518C105.042 557.945 103.945 560.217 102.133 561.838L102.844 562.655C107.67 558.885 115.654 545.585 115.654 537.538V537.144L115.279 537.022Z" fill="black"/>
<path d="M390.794 440.38L390.36 441.133C383.315 453.323 364.209 466.82 349.807 472.823L350.016 473.324L350.016 473.324L350.017 473.325L350.225 473.825C350.283 473.8 350.344 473.773 350.402 473.749L356.794 480.764L356.795 480.764L357.014 481.26C369.106 475.92 386.808 464.552 396.903 450.088L397.116 449.783L390.794 440.38Z" fill="black"/>
<path d="M406.03 462.897C405.186 461.681 404.479 460.629 403.752 459.545C403.209 458.736 402.655 457.91 402.025 456.987L401.592 456.354L401.138 456.973C392.291 469.103 378.457 480.308 363.185 487.716L362.543 488.027L364.513 490.26C365.572 491.458 366.439 492.436 367.763 493.981L368.028 494.29L368.399 494.122C382.206 487.836 399.204 475.92 406.059 463.468L406.221 463.174L406.03 462.897Z" fill="black"/>
<path d="M169.179 445.723C154.609 442.471 134.453 427.058 124.77 414.703L124.276 414.071L123.874 414.765C122.203 417.651 120.517 420.578 118.818 423.544L118.632 423.869L118.871 424.158C128.072 435.328 145.886 449.699 163.255 454.853L163.632 454.964L163.856 454.641C165.71 451.965 167.592 449.273 169.505 446.565L169.972 445.9L169.179 445.723Z" fill="black"/>
<path d="M158.492 461.095C143.693 456.729 128.179 446.379 114.804 431.953L114.301 431.41L109.863 439.23L110.083 439.515C118.602 450.589 135.4 463.87 153.728 468.58L154.092 468.673L159.213 461.308L158.492 461.095Z" fill="black"/>
<path d="M365.287 101.979C363.183 103.107 358.833 102.565 355.905 99.528C356.668 101.695 357.192 103.939 357.467 106.22C357.76 109.007 356.827 114.268 353.443 115.07C351.339 115.558 349.614 114.159 348.063 111.307C346.87 109.116 344.571 104.528 343.541 102.381C346.632 109.029 346.968 117.879 341.295 122.511C340.637 123.129 339.788 123.504 338.888 123.574C337.195 123.552 336.1 121.849 335.363 120.352C333.768 117.109 331.924 113.096 330.384 109.68C332.143 114.48 332.043 119.765 330.102 124.496C328.768 127.565 325.297 130.537 322.304 128.964C320.59 128.053 319.874 126.036 319.289 124.203C311.686 100.754 294.473 76.3285 271.935 65.5259C272.141 65.3958 272.347 65.2548 272.564 65.1138C286.241 56.1225 300.428 50.9489 315.341 50.6127C315.814 50.6061 316.279 50.4989 316.708 50.2982C333.486 55.45 350.471 67.6192 360.937 81.4695C363.909 85.4175 366.599 89.7125 367.564 95.027C368.248 98.7904 367.011 101.046 365.287 101.979Z" fill="black"/>
<path d="M315.339 50.6136C316.454 50.5827 317.486 50.0171 318.112 49.0939C318.737 48.1707 318.88 47.0028 318.496 45.9559C317.947 44.4585 313.651 33.4184 308.097 31.1704C303.948 29.0483 293.121 32.4013 284.812 35.2218C272.046 39.5553 249.394 50.7752 230.158 71.5066C228.164 73.5878 226.414 75.7163 226.175 78.5889C226.128 80.0779 226.377 81.5613 226.906 82.9536C228.359 87.572 230.568 91.9171 233.444 95.8115C234.089 96.9673 235.181 97.806 236.464 98.1297C237.62 98.1409 238.73 97.6856 239.545 96.8669C241.743 95.0219 242.203 94.1421 245.27 90.2153C256.424 76.8233 262.378 71.7992 272.559 65.1136C286.246 56.1256 300.424 50.9507 315.339 50.6136Z" fill="white"/>
<path fill-rule="evenodd" clip-rule="evenodd" d="M236.404 98.6687C236.52 98.6816 236.637 98.6882 236.754 98.6883C237.934 98.6058 239.047 98.1076 239.894 97.2823C241.473 95.9406 242.869 94.3966 244.044 92.6902C244.504 92.0902 245.041 91.3895 245.686 90.5623C257.01 76.9677 262.97 72.0595 272.857 65.5667C287.132 56.193 301.031 51.4791 315.352 51.1561C316.642 51.121 317.836 50.4671 318.56 49.3993C319.284 48.3315 319.45 46.9803 319.005 45.7691C318.53 44.4748 314.193 33.0526 308.344 30.6875C304.175 28.5558 294.02 31.5237 284.637 34.7081C277.42 37.1585 252.133 47.0258 229.766 71.1316C227.819 73.1642 225.895 75.4107 225.635 78.5438C225.582 80.1045 225.839 81.6603 226.391 83.121C227.858 87.7942 230.093 92.1906 233.004 96.1299C233.733 97.4143 234.966 98.335 236.404 98.6687ZM284.987 35.7355C289.459 34.2172 298.767 31.0576 304.497 31.0576C305.661 31.0017 306.823 31.2122 307.894 31.673C313.447 33.9206 317.804 45.6452 317.986 46.143C318.317 47.0304 318.193 48.0235 317.654 48.8021C317.132 49.5802 316.263 50.0542 315.327 50.0715C300.798 50.3998 286.711 55.1714 272.262 64.6601C262.279 71.2153 256.265 76.1665 244.842 89.8818C244.184 90.7254 243.645 91.4282 243.183 92.0308C242.056 93.6746 240.716 95.1613 239.197 96.4518C238.499 97.1798 237.534 97.5911 236.525 97.5905C235.397 97.2787 234.443 96.5218 233.884 95.4933C231.039 91.6456 228.856 87.3513 227.423 82.7863C226.911 81.4635 226.671 80.0514 226.715 78.6338C226.947 75.854 228.737 73.7743 230.556 71.8752C252.755 47.95 277.83 38.1647 284.987 35.7355Z" fill="black"/>
<path d="M330.384 110.222C330.17 110.222 329.976 110.096 329.889 109.901C327.392 104.305 318.087 85.1192 303.18 73.1944C302.946 73.0072 302.908 72.6658 303.096 72.4318C303.283 72.1978 303.624 72.1599 303.858 72.3471C318.956 84.4249 328.358 103.806 330.88 109.459C330.955 109.627 330.939 109.821 330.839 109.975C330.739 110.129 330.568 110.222 330.384 110.222H330.384Z" fill="white"/>
<path d="M343.54 102.923C343.327 102.923 343.134 102.798 343.046 102.604C336.644 88.4445 327.778 77.6255 316.691 70.448C316.528 70.3428 316.434 70.1587 316.444 69.9652C316.454 69.7717 316.566 69.5981 316.738 69.5098C316.911 69.4215 317.117 69.4319 317.28 69.5371C328.544 76.83 337.545 87.8048 344.035 102.157C344.111 102.325 344.096 102.52 343.996 102.675C343.896 102.829 343.724 102.923 343.54 102.923V102.923Z" fill="white"/>
<path d="M355.908 100.074C355.682 100.074 355.479 99.9333 355.4 99.721C353.184 93.7531 347.296 77.9019 328.791 67.3472C328.62 67.2525 328.513 67.0731 328.512 66.8776C328.51 66.6822 328.614 66.5009 328.783 66.4032C328.952 66.3055 329.161 66.3064 329.329 66.4056C348.176 77.1547 354.163 93.2748 356.417 99.3429C356.521 99.6238 356.378 99.9358 356.097 100.04C356.037 100.063 355.973 100.074 355.908 100.074Z" fill="white"/>
<ellipse cx="270.719" cy="85.3314" rx="3.6197" ry="5.3271" transform="rotate(-37.2666 270.719 85.3314)" fill="black"/>
<path d="M252.156 110.395L251.476 109.55C251.685 109.383 251.895 109.205 252.104 109.016C252.549 108.607 252.972 108.174 253.37 107.719L253.48 107.622C257.756 102.724 257.054 99.1167 256.038 98.1402C254.337 96.5191 250.078 98.0104 247.173 100.423L246.48 99.5881C249.801 96.8305 254.565 95.2396 256.788 97.3564C258.282 98.7937 258.915 103.048 254.263 108.356L254.178 108.442C253.756 108.924 253.307 109.384 252.834 109.818C252.605 110.025 252.38 110.215 252.156 110.395Z" fill="black"/>
<path d="M253.554 107.747C253.399 108.112 253.173 108.444 252.89 108.721C252.671 108.893 252.426 109.03 252.165 109.126C251.881 109.226 251.584 109.282 251.283 109.291C249.64 106.257 248.323 103.057 247.352 99.7454C248.908 99.4219 250.952 100.34 252.398 102.173C253.883 104.052 254.309 106.311 253.554 107.747Z" fill="black"/>
<path d="M222.055 171.025C217.12 178.541 207.781 187.587 199.506 192.023C197.183 189.219 194.664 186.584 191.968 184.138C184.115 177.066 174.473 171.545 163.898 170.58C158.345 170.081 153.853 169.324 150.969 167.579C146.673 164.98 142.727 160.168 139.473 156.329C132.705 148.346 127.315 142.977 118.562 137.229C116.035 135.58 111.892 133.151 109.126 130.602C106.295 127.977 105.71 124.224 108.671 121.361C111.892 118.921 115.775 121.35 117.087 122.088C125.799 126.989 134.156 132.494 142.098 138.563C140.812 137.187 139.888 135.514 139.408 133.693C138.783 131.059 139.989 128.332 142.358 127.023C144.776 125.768 147.693 125.978 149.907 127.565C148.638 125.721 149.256 122.402 150.46 120.515C151.537 118.706 153.432 117.539 155.532 117.391C157.918 117.211 160.275 117.997 162.076 119.571C161.235 116.844 162.163 113.881 164.408 112.12C169.842 108.736 176.122 114.561 179.126 117.25C181.735 119.643 184.134 122.256 186.295 125.06C188.465 118.205 189.278 110.19 190.59 98.9315C190.97 95.6777 192.055 90.2764 196.219 88.8014C202.445 86.5888 203.454 93.6279 203.204 97.4782C202.998 100.873 203.139 104.257 203.204 107.652C203.324 114.051 206.404 120.255 205.666 126.611C204.896 133.324 199.82 139.908 202.152 146.253C203.758 150.624 208.497 156.827 213.649 162.532C216.469 165.645 219.419 168.606 222.055 171.025Z" fill="white"/>
<path fill-rule="evenodd" clip-rule="evenodd" d="M199.088 192.369C199.192 192.493 199.344 192.565 199.506 192.565C199.595 192.565 199.683 192.543 199.762 192.501C207.667 188.263 217.233 179.356 222.508 171.323C222.654 171.1 222.617 170.805 222.421 170.626C219.705 168.133 216.733 165.13 214.052 162.169C208.099 155.577 204.054 149.858 202.662 146.065C201.266 142.27 202.656 138.37 204.128 134.24C205.102 131.804 205.799 129.265 206.205 126.673C206.63 123.011 205.814 119.376 205.025 115.861C204.326 113.171 203.898 110.417 203.747 107.642L203.706 105.787C203.643 103.072 203.578 100.265 203.746 97.5132C203.816 96.4307 204.016 90.9193 201.081 88.7024C199.589 87.6878 197.674 87.5314 196.038 88.2904C192.748 89.4555 190.735 93.0143 190.052 98.8684L189.758 101.4C188.664 110.857 187.857 117.831 186.089 123.875C184.055 121.381 181.849 119.033 179.488 116.846L179.279 116.659C176.195 113.893 169.778 108.14 164.121 111.66C162.234 112.838 161.032 115.785 161.225 118.23C159.499 117.187 157.491 116.705 155.479 116.851C153.213 117.016 151.17 118.274 150.003 120.223C148.861 122.059 148.441 124.254 148.825 126.382C146.687 125.348 144.181 125.41 142.096 126.547C139.52 127.968 138.204 130.928 138.875 133.792C139.049 134.6 139.337 135.379 139.732 136.105C132.578 130.818 125.104 125.979 117.353 121.615L117.15 121.5L117.147 121.498C115.651 120.646 111.693 118.39 108.294 120.971C106.953 122.179 106.181 123.895 106.167 125.699C106.263 127.748 107.201 129.666 108.759 131.001C111.214 133.095 113.843 134.977 116.616 136.628C117.213 137.006 117.77 137.359 118.265 137.682C127.158 143.522 132.433 148.864 139.06 156.679L139.609 157.328L139.61 157.329C142.705 160.989 146.556 165.543 150.688 168.043C153.921 169.999 158.924 170.677 163.849 171.12C173.206 171.974 182.804 176.615 191.603 184.539C194.281 186.968 196.782 189.585 199.088 192.369ZM108.998 121.793C109.819 121.165 110.828 120.83 111.862 120.842C113.555 120.966 115.189 121.517 116.612 122.442L116.821 122.56C125.509 127.45 133.846 132.941 141.769 138.993C141.992 139.164 142.308 139.136 142.498 138.929C142.688 138.723 142.688 138.405 142.5 138.198C141.282 136.895 140.403 135.313 139.941 133.591C139.367 131.19 140.461 128.701 142.617 127.499C144.779 126.318 147.137 126.496 149.624 128.027C149.842 128.161 150.124 128.124 150.301 127.938C150.477 127.752 150.5 127.468 150.355 127.257C149.268 125.679 149.779 122.591 150.916 120.808C151.902 119.137 153.649 118.06 155.585 117.93C157.81 117.765 160.009 118.495 161.694 119.957C161.877 120.138 162.163 120.166 162.377 120.023C162.591 119.88 162.676 119.606 162.579 119.367C161.831 116.885 162.669 114.198 164.695 112.581C169.657 109.488 175.447 114.678 178.554 117.466L178.763 117.653C181.342 120.018 183.713 122.6 185.851 125.37C185.969 125.539 186.173 125.627 186.377 125.596C186.581 125.565 186.75 125.42 186.813 125.223C188.831 118.844 189.672 111.579 190.835 101.525L191.13 98.9944C191.76 93.5852 193.533 90.3282 196.4 89.3125C197.695 88.6907 199.221 88.7874 200.427 89.5677C202.359 91.0273 202.839 94.7222 202.663 97.4454C202.493 100.245 202.558 103.075 202.622 105.812L202.662 107.662C202.813 110.511 203.25 113.337 203.967 116.099C204.772 119.683 205.531 123.069 205.127 126.548C204.728 129.059 204.05 131.517 203.106 133.876L203.105 133.879C201.634 138.007 200.113 142.277 201.643 146.439C203.585 151.728 209.747 159.02 213.248 162.896C215.839 165.758 218.701 168.66 221.347 171.11C216.199 178.778 207.199 187.162 199.637 191.334C197.378 188.637 194.937 186.098 192.331 183.735C183.354 175.651 173.54 170.916 163.947 170.04C159.381 169.63 154.302 168.962 151.25 167.115C147.269 164.707 143.481 160.227 140.438 156.628L139.888 155.978C133.353 148.27 127.816 142.657 118.859 136.774C118.359 136.449 117.798 136.093 117.196 135.711C114.479 134.095 111.903 132.253 109.495 130.204C108.158 129.071 107.347 127.438 107.251 125.688C107.268 124.204 107.9 122.793 108.998 121.793Z" fill="black"/>
<path d="M231.643 356.361C228.866 359.181 225.851 362.511 222.662 366.209C215.449 374.582 194.007 404.268 173.714 433.823C173.562 433.736 173.41 433.66 173.248 433.584C161.079 428.313 144.517 415.938 134.69 406.947C134.231 406.543 133.68 406.256 133.085 406.112C137.662 396.589 171.664 337.001 178.573 327.424C181.22 323.78 183.768 320.493 186.187 317.706C189.743 318.501 193.178 319.763 196.404 321.459C205.005 325.873 218.714 337.467 225.102 345.645C227.74 348.917 229.939 352.519 231.643 356.361Z" fill="white"/>
<path fill-rule="evenodd" clip-rule="evenodd" d="M173.444 434.293L173.878 434.542L174.161 434.13C194.965 403.829 215.993 374.782 223.074 366.563C226.457 362.639 229.385 359.426 232.029 356.741L232.281 356.485L232.143 356.152C230.421 352.266 228.197 348.622 225.53 345.312C219.036 336.998 205.271 325.399 196.651 320.977C193.377 319.266 189.894 317.987 186.29 317.173L185.982 317.114L185.777 317.35C183.467 320.014 180.966 323.204 178.134 327.106C171.157 336.778 137.009 396.695 132.596 405.877L132.311 406.47L132.947 406.636C133.457 406.758 133.929 407.002 134.324 407.347C144.604 416.753 161.201 428.957 173.021 434.077C173.168 434.145 173.306 434.215 173.444 434.293ZM135.058 406.548C134.702 406.226 134.291 405.971 133.844 405.794C139.216 395.009 172.181 337.212 179.012 327.743C181.741 323.984 184.157 320.891 186.39 318.3C189.783 319.105 193.064 320.328 196.156 321.942C204.664 326.307 218.257 337.765 224.675 345.979C227.203 349.122 229.328 352.569 231.002 356.239C228.409 358.888 225.543 362.037 222.252 365.855C215.181 374.064 194.272 402.935 173.538 433.122L173.464 433.087C161.742 428.009 145.269 415.892 135.058 406.548Z" fill="black"/>
<path d="M475.824 169.344C480.54 171.834 483.875 176.323 484.898 181.557C485.036 182.24 486.082 181.951 485.944 181.268C484.849 175.76 481.334 171.037 476.372 168.407C475.757 168.078 475.208 169.014 475.824 169.344Z" fill="black"/>
<path d="M200.696 199.537C204.869 198.996 208.822 197.353 212.149 194.777C212.706 194.368 212.165 193.427 211.601 193.84C208.439 196.317 204.676 197.909 200.696 198.452C200.008 198.522 200.001 199.607 200.696 199.537Z" fill="black"/>
<path d="M389.067 544.594C392.653 544.063 396.314 544.76 399.454 546.573C399.711 546.712 400.032 546.622 400.18 546.369C400.328 546.117 400.249 545.793 400.001 545.637C396.605 543.689 392.648 542.952 388.778 543.548C388.09 543.651 388.383 544.697 389.067 544.594Z" fill="black"/>
<path d="M387.893 551.191C391.198 551.027 394.571 551.343 396.9 553.973C397.363 554.496 398.128 553.727 397.667 553.206C395.166 550.381 391.472 549.929 387.893 550.107C387.198 550.141 387.194 551.226 387.893 551.191Z" fill="black"/>
<path d="M389.344 538.197C392.712 537.564 396.373 537.501 399.454 539.195C400.066 539.531 400.614 538.595 400.001 538.258C396.652 536.417 392.723 536.462 389.056 537.151C388.371 537.28 388.661 538.325 389.344 538.197Z" fill="black"/>
<path d="M65.5992 476.183C66.2647 478.701 66.3175 481.341 65.7532 483.883C65.5992 484.563 66.6445 484.853 66.799 484.172C67.4076 481.44 67.3548 478.602 66.645 475.895C66.5575 475.616 66.2647 475.456 65.9829 475.534C65.701 475.611 65.5313 475.899 65.5992 476.183Z" fill="black"/>
<path d="M58.6183 476.398C59.405 478.803 59.1577 481.425 57.9354 483.64C57.57 484.237 58.5077 484.783 58.8719 484.188C60.2378 481.719 60.5245 478.797 59.6641 476.11C59.5766 475.831 59.2838 475.671 59.002 475.749C58.7201 475.827 58.5504 476.114 58.6183 476.398V476.398Z" fill="black"/>
<path d="M72.2546 475.246C72.9908 477.312 73.1784 479.534 72.7991 481.694C72.6542 482.375 73.6995 482.666 73.845 481.983C74.2748 479.633 74.0872 477.213 73.3005 474.958C73.0945 474.293 72.0472 474.577 72.2546 475.246Z" fill="black"/>
<path d="M271.266 142.115C271.148 142.115 271.034 142.077 270.94 142.006C266.048 138.317 260.498 129.838 257.96 123.772C257.885 123.594 257.911 123.389 258.028 123.234C258.146 123.08 258.336 123 258.528 123.025C258.721 123.05 258.885 123.175 258.96 123.354C261.745 130.009 267.412 137.988 271.592 141.14C271.779 141.28 271.854 141.524 271.78 141.745C271.707 141.966 271.499 142.115 271.266 142.115Z" fill="white"/>
<path d="M285.586 68.1699C296.953 75.739 306.207 86.0756 312.477 98.2072C312.798 98.8272 313.734 98.2793 313.414 97.6597C307.048 85.3682 297.66 74.8979 286.133 67.2334C285.551 66.8455 285.007 67.7845 285.586 68.1699H285.586Z" fill="white"/>
<path d="M321.489 85.2058C328.475 92.9466 333.789 102.044 337.102 111.931C337.323 112.589 338.37 112.307 338.147 111.643C334.776 101.579 329.366 92.3186 322.256 84.4389C321.788 83.9193 321.023 84.6884 321.489 85.2058H321.489Z" fill="white"/>
<path d="M317.622 56.5165C327.666 59.7435 337.151 64.765 344.397 72.558C344.873 73.0703 345.639 72.302 345.164 71.791C337.796 63.8674 328.123 58.7519 317.911 55.4707C317.245 55.2567 316.959 56.3035 317.622 56.5165Z" fill="white"/>
<path d="M344.594 88.6937C347.659 92.4264 349.95 96.7329 351.331 101.361C351.542 102.024 352.589 101.741 352.377 101.073C350.938 96.267 348.553 91.7973 345.361 87.9268C344.905 87.3969 344.141 88.1669 344.594 88.6937H344.594Z" fill="white"/>
<path d="M300.266 134.224C301.561 136.027 303.065 137.672 304.746 139.123C305.273 139.577 306.043 138.813 305.513 138.356C303.897 136.971 302.45 135.4 301.202 133.676C300.797 133.116 299.856 133.656 300.266 134.224V134.224Z" fill="white"/>
<path d="M294.044 27.7901C293.91 27.7903 293.781 27.7409 293.682 27.6513C293.536 27.5216 293.377 27.3834 293.206 27.2356C291.06 25.6695 289.543 23.3893 288.927 20.8048C288.464 18.0885 288.608 15.3035 289.347 12.6491C289.417 12.3586 289.709 12.1795 290 12.2487C290.291 12.3178 290.471 12.6092 290.402 12.9001C289.7 15.4064 289.56 18.0369 289.992 20.6035C290.575 22.9417 291.964 24.9995 293.915 26.4147C294.091 26.5673 294.257 26.7097 294.406 26.8442C294.573 26.9943 294.631 27.2319 294.55 27.4417C294.47 27.6515 294.268 27.7901 294.044 27.7901H294.044Z" fill="black"/>
<path d="M158.966 163.935C158.946 163.935 158.925 163.934 158.905 163.932C156.335 163.855 153.896 162.774 152.113 160.92L148.392 157.805C148.243 157.681 148.171 157.486 148.204 157.294C148.238 157.103 148.371 156.944 148.554 156.878C148.736 156.811 148.94 156.848 149.089 156.973L152.81 160.089C154.428 161.805 156.666 162.8 159.024 162.854C159.31 162.885 159.522 163.135 159.507 163.422C159.491 163.71 159.254 163.935 158.966 163.935Z" fill="black"/>
<path d="M330.819 340.978C327.781 340.814 324.852 339.795 322.369 338.039C321.775 337.669 321.23 338.607 321.821 338.976C324.472 340.826 327.59 341.896 330.819 342.062C331.111 342.052 331.342 341.812 331.342 341.52C331.342 341.228 331.111 340.988 330.819 340.978Z" fill="black"/>
<path d="M328.808 345.571C323.868 345.553 320.465 349.037 317.454 352.539C317.001 353.066 317.765 353.837 318.221 353.306C321.029 350.039 324.151 346.639 328.808 346.656C329.1 346.646 329.332 346.406 329.332 346.113C329.332 345.821 329.1 345.581 328.808 345.571Z" fill="black"/>
<path d="M379.272 155.165L380.569 158.558C380.613 158.674 380.719 158.754 380.842 158.766L384.258 159.089C384.389 159.101 384.5 159.191 384.538 159.317C384.577 159.443 384.536 159.58 384.434 159.664L381.843 161.792C381.741 161.875 381.7 162.011 381.738 162.137L382.661 165.213C382.699 165.339 382.657 165.475 382.556 165.558C382.455 165.641 382.314 165.656 382.198 165.595L379.128 163.981C379.028 163.928 378.909 163.931 378.812 163.988L375.751 165.78C375.636 165.847 375.492 165.838 375.387 165.757C375.282 165.675 375.237 165.538 375.274 165.411L376.2 162.143C376.236 162.014 376.19 161.876 376.084 161.795L373.286 159.672C373.179 159.59 373.133 159.452 373.17 159.322C373.207 159.193 373.32 159.1 373.454 159.088L377.092 158.765C377.216 158.754 377.323 158.673 377.367 158.557L378.664 155.165C378.712 155.039 378.833 154.956 378.968 154.956C379.103 154.956 379.224 155.039 379.272 155.165Z" fill="black"/>
<path d="M241.69 191.426L242.988 194.819C243.032 194.934 243.138 195.015 243.261 195.026L246.676 195.349C246.808 195.361 246.918 195.452 246.957 195.578C246.995 195.704 246.954 195.841 246.852 195.924L244.261 198.053C244.16 198.136 244.118 198.272 244.156 198.398L245.08 201.474C245.117 201.599 245.076 201.735 244.975 201.818C244.874 201.902 244.733 201.916 244.617 201.855L241.546 200.241C241.447 200.189 241.328 200.192 241.231 200.248L238.17 202.041C238.055 202.108 237.911 202.098 237.806 202.017C237.701 201.936 237.656 201.799 237.692 201.671L238.619 198.404C238.655 198.275 238.609 198.137 238.502 198.056L235.705 195.932C235.598 195.851 235.552 195.712 235.589 195.583C235.626 195.454 235.739 195.361 235.873 195.349L239.511 195.025C239.635 195.014 239.741 194.934 239.786 194.817L241.083 191.426C241.131 191.3 241.252 191.217 241.386 191.217C241.521 191.217 241.642 191.3 241.69 191.426Z" fill="black"/>
<path d="M417.835 249.089L421.079 250.724C421.189 250.78 421.322 250.768 421.421 250.693L424.163 248.632C424.268 248.553 424.411 248.545 424.525 248.612C424.638 248.679 424.7 248.808 424.681 248.939L424.198 252.257C424.179 252.387 424.24 252.515 424.353 252.583L427.107 254.235C427.219 254.302 427.28 254.431 427.262 254.56C427.243 254.69 427.148 254.796 427.022 254.829L423.665 255.703C423.556 255.731 423.47 255.814 423.436 255.921L422.38 259.307C422.341 259.434 422.228 259.524 422.096 259.535C421.963 259.545 421.838 259.475 421.779 259.356L420.263 256.316C420.203 256.197 420.076 256.126 419.943 256.138L416.445 256.451C416.311 256.463 416.183 256.392 416.124 256.271C416.064 256.151 416.085 256.006 416.176 255.907L418.648 253.218C418.732 253.126 418.756 252.995 418.711 252.879L417.386 249.499C417.337 249.373 417.37 249.23 417.47 249.139C417.569 249.048 417.715 249.028 417.835 249.089Z" fill="black"/>
<path d="M382.887 210.472L386.131 212.106C386.241 212.162 386.374 212.15 386.473 212.076L389.215 210.014C389.321 209.935 389.463 209.927 389.577 209.995C389.69 210.062 389.752 210.191 389.733 210.321L389.25 213.639C389.231 213.769 389.292 213.898 389.405 213.965L392.159 215.617C392.271 215.685 392.332 215.813 392.314 215.943C392.295 216.072 392.201 216.178 392.074 216.211L388.717 217.085C388.608 217.114 388.522 217.196 388.488 217.303L387.432 220.69C387.393 220.816 387.28 220.907 387.148 220.917C387.015 220.928 386.89 220.857 386.831 220.738L385.315 217.699C385.255 217.579 385.128 217.508 384.995 217.52L381.497 217.834C381.363 217.846 381.235 217.774 381.176 217.653C381.116 217.533 381.137 217.388 381.228 217.289L383.7 214.6C383.784 214.509 383.809 214.377 383.763 214.261L382.438 210.881C382.389 210.755 382.422 210.612 382.522 210.522C382.621 210.431 382.767 210.411 382.887 210.472Z" fill="black"/>
<path d="M479.277 232.888L482.52 234.523C482.631 234.579 482.763 234.567 482.862 234.492L485.605 232.431C485.71 232.352 485.853 232.344 485.966 232.411C486.079 232.478 486.141 232.607 486.122 232.738L485.64 236.056C485.621 236.186 485.682 236.314 485.794 236.382L488.549 238.034C488.661 238.102 488.722 238.23 488.703 238.359C488.685 238.489 488.59 238.595 488.463 238.628L485.107 239.502C484.998 239.531 484.911 239.613 484.878 239.72L483.822 243.106C483.782 243.233 483.67 243.323 483.537 243.334C483.405 243.345 483.279 243.274 483.22 243.155L481.705 240.115C481.645 239.996 481.518 239.925 481.384 239.937L477.886 240.25C477.752 240.262 477.625 240.191 477.565 240.07C477.506 239.95 477.527 239.805 477.618 239.706L480.089 237.017C480.173 236.926 480.198 236.794 480.153 236.678L478.827 233.298C478.778 233.172 478.811 233.029 478.911 232.938C479.011 232.847 479.156 232.828 479.277 232.888Z" fill="black"/>
<path d="M457.033 199.777L453.671 200.645C453.563 200.674 453.477 200.756 453.443 200.862L452.391 204.246C452.357 204.365 452.254 204.452 452.13 204.463C451.801 201.678 450.947 198.98 449.614 196.513C449.148 195.689 448.66 194.908 448.15 194.181L451.089 195.667C451.198 195.722 451.329 195.709 451.425 195.634L454.169 193.574C454.275 193.494 454.417 193.485 454.531 193.552C454.645 193.618 454.708 193.747 454.69 193.877L454.202 197.196C454.186 197.327 454.25 197.455 454.365 197.522L457.12 199.181C457.228 199.252 457.285 199.379 457.267 199.507C457.248 199.635 457.157 199.741 457.033 199.777Z" fill="black"/>
<path d="M455.58 143.932V143.942C455.584 144.094 455.479 144.226 455.33 144.257L451.979 145.135C451.871 145.164 451.785 145.246 451.751 145.352L450.688 148.736C450.651 148.863 450.54 148.955 450.408 148.966C450.277 148.978 450.151 148.909 450.091 148.791L448.573 145.754C448.512 145.632 448.383 145.56 448.248 145.569L444.755 145.884C444.622 145.895 444.496 145.824 444.436 145.705C444.376 145.585 444.395 145.441 444.484 145.341L446.957 142.652C447.042 142.561 447.067 142.431 447.022 142.315L446.295 140.461C449.451 141.448 452.55 142.607 455.58 143.932Z" fill="black"/>
<path d="M353.664 253.296L356.424 255.658C356.518 255.739 356.649 255.759 356.763 255.71L359.918 254.363C360.039 254.311 360.18 254.338 360.274 254.43C360.368 254.522 360.397 254.662 360.347 254.784L359.087 257.891C359.037 258.013 359.066 258.152 359.159 258.245L361.439 260.507C361.532 260.599 361.561 260.738 361.512 260.86C361.463 260.981 361.346 261.061 361.215 261.063L357.746 261.111C357.634 261.112 357.53 261.172 357.472 261.268L355.638 264.304C355.57 264.418 355.439 264.478 355.308 264.457C355.177 264.436 355.072 264.337 355.043 264.207L354.296 260.894C354.267 260.764 354.16 260.664 354.028 260.644L350.556 260.114C350.423 260.093 350.317 259.993 350.288 259.862C350.259 259.731 350.313 259.595 350.425 259.521L353.467 257.5C353.571 257.431 353.626 257.309 353.61 257.186L353.13 253.587C353.112 253.453 353.178 253.322 353.297 253.258C353.415 253.193 353.561 253.209 353.664 253.296Z" fill="black"/>
<path d="M288.779 244.116C285.439 244.213 282.076 244.174 278.692 243.997L281.697 241.99C281.803 241.929 281.859 241.807 281.838 241.686L281.36 238.086C281.339 237.951 281.404 237.818 281.523 237.753C281.642 237.687 281.79 237.703 281.892 237.793L284.658 240.157C284.751 240.236 284.883 240.253 284.994 240.2L288.15 238.856C288.271 238.806 288.41 238.834 288.502 238.927C288.594 239.019 288.622 239.158 288.573 239.279L287.315 242.391C287.267 242.512 287.297 242.649 287.391 242.738L288.779 244.116Z" fill="black"/>
<path d="M256.952 82.477C256.874 82.4771 256.796 82.4687 256.719 82.4521C256.134 82.3238 255.764 81.7455 255.892 81.1604C256.854 77.484 259.193 74.3182 262.424 72.3184C264.791 70.7217 267.556 69.8175 270.408 69.7075C271.001 69.7121 271.486 70.1806 271.512 70.7731C271.522 71.372 271.045 71.866 270.446 71.8767C267.982 71.9863 265.596 72.78 263.557 74.1688C260.821 75.8511 258.835 78.52 258.011 81.6244C257.902 82.1218 257.462 82.4766 256.952 82.477Z" fill="black"/>
<path d="M241.945 93.7007C241.532 93.7 241.154 93.4644 240.972 93.0932C240.791 92.722 240.835 92.2796 241.088 91.9525C242.574 89.9799 244.883 88.7993 247.352 88.7506C247.951 88.7506 248.437 89.2362 248.437 89.8352C248.437 90.4342 247.951 90.9198 247.352 90.9198C245.554 90.967 243.878 91.837 242.804 93.2796C242.598 93.5456 242.281 93.7012 241.945 93.7007Z" fill="black"/>
<path d="M24.1029 512.472C25.4332 512.057 27.0185 512.812 28.1454 511.729C29.22 510.696 29.2034 508.682 29.2619 507.303C29.2915 506.605 28.2069 506.606 28.1773 507.303C28.1313 508.386 28.2173 510.692 26.9879 511.18C26.0177 511.564 24.839 511.106 23.8145 511.426C23.1504 511.634 23.4339 512.681 24.1029 512.472Z" fill="black"/>
<path d="M84.4684 559.996C84.2167 559.997 83.9981 559.823 83.9409 559.578C83.3383 557.012 83.3404 555.465 83.9484 554.712C85.0446 553.352 87.88 553.255 89.4042 553.202C89.5526 553.19 89.6994 553.239 89.8115 553.337C89.9235 553.435 89.9913 553.574 89.9995 553.723C90.0121 553.863 89.9672 554.002 89.875 554.107C89.7828 554.213 89.6514 554.277 89.5112 554.283C88.2857 554.326 85.5773 554.42 84.7925 555.393C84.6241 555.602 84.3085 556.401 84.9959 559.33C85.0289 559.47 85.005 559.617 84.9292 559.74C84.8535 559.862 84.7323 559.949 84.5923 559.982C84.5518 559.992 84.5102 559.997 84.4684 559.996Z" fill="black"/>
<path d="M75.3764 553.799C75.0961 553.799 74.8623 553.585 74.8373 553.306L74.8087 552.994C74.6382 551.188 74.5429 549.497 75.244 548.646C76.1909 547.498 78.411 547.444 80.6744 547.559C80.8181 547.566 80.953 547.63 81.0494 547.736C81.1458 547.843 81.1957 547.984 81.1881 548.127C81.1919 548.275 81.1312 548.416 81.0219 548.515C80.9125 548.614 80.7655 548.66 80.6194 548.641C79.5781 548.589 76.8106 548.45 76.0808 549.337C75.6063 549.912 75.7969 551.924 75.888 552.893L75.9177 553.208C75.9444 553.506 75.7245 553.77 75.4262 553.797C75.4093 553.798 75.3934 553.799 75.3764 553.799Z" fill="black"/>
<path d="M67.0492 547.479C66.7693 547.479 66.5359 547.265 66.51 546.987L66.4656 546.524C66.2982 544.81 66.1256 543.038 67.1011 541.928C68.2164 540.659 72.0559 540.654 72.0972 540.652C72.3967 540.654 72.6379 540.898 72.6358 541.198C72.6338 541.497 72.3893 541.738 72.0898 541.736C72.0581 541.738 72.0262 541.738 71.9945 541.735C70.8019 541.735 68.4515 542.034 67.9167 542.644C67.2504 543.401 67.3934 544.867 67.5449 546.419L67.5904 546.887C67.6178 547.185 67.3983 547.449 67.1 547.477C67.0831 547.478 67.0662 547.479 67.0492 547.479Z" fill="black"/>
<path d="M8.88437 490.221C7.27817 490.03 5.71576 489.569 4.26316 488.858C3.99057 488.734 3.86965 488.413 3.99307 488.141C4.1165 487.868 4.43754 487.747 4.71014 487.871C6.43554 488.651 8.63758 489.336 9.20106 489.099C9.91176 488.79 10.6225 486.851 10.901 485.572C10.9645 485.28 11.2531 485.094 11.5455 485.158C11.838 485.221 12.0237 485.51 11.9602 485.802C11.8299 486.407 11.1023 489.456 9.6332 490.094C9.39457 490.186 9.13996 490.229 8.88437 490.221Z" fill="black"/>
<path d="M14.0426 497.752C12.5798 497.686 11.127 497.476 9.70526 497.126C9.41445 497.056 9.23505 496.764 9.30428 496.473C9.37351 496.182 9.66523 496.002 9.95629 496.071C11.6266 496.468 14.2693 496.883 14.9259 496.561C15.6091 496.228 16.4278 493.966 16.7901 492.468C16.8632 492.178 17.1539 492.001 17.4446 492.067C17.7357 492.138 17.9148 492.43 17.845 492.722C17.6787 493.407 16.7827 496.86 15.4025 497.536C14.9694 497.702 14.506 497.776 14.0426 497.752Z" fill="black"/>
<path d="M18.542 505.417C17.3515 505.417 16.2139 505.305 15.9989 505.283C15.8058 505.263 15.6378 505.142 15.5585 504.965C15.4792 504.788 15.5006 504.582 15.6147 504.425C15.7289 504.268 15.9182 504.184 16.1112 504.204C17.6194 504.426 19.1544 504.387 20.6498 504.091C21.2937 503.776 21.7577 501.764 21.8688 500.504C21.8842 500.309 22.0027 500.138 22.1792 500.055C22.3556 499.973 22.5629 499.991 22.7222 500.103C22.8814 500.216 22.9681 500.405 22.9492 500.599C22.8952 501.222 22.551 504.368 21.1264 505.065C20.2953 505.347 19.418 505.466 18.542 505.417Z" fill="black"/>
</svg>
