<svg width="556" height="650" viewBox="0 0 556 650" fill="none" xmlns="http://www.w3.org/2000/svg">
<path fill-rule="evenodd" clip-rule="evenodd" d="M2 4C3.10457 4 4 3.10457 4 2C4 0.895431 3.10457 0 2 0C0.895431 0 0 0.895431 0 2C0 3.10457 0.895431 4 2 4ZM94 4C95.1046 4 96 3.10457 96 2C96 0.895431 95.1046 0 94 0C92.8954 0 92 0.895431 92 2C92 3.10457 92.8954 4 94 4ZM188 2C188 3.10457 187.105 4 186 4C184.895 4 184 3.10457 184 2C184 0.895431 184.895 0 186 0C187.105 0 188 0.895431 188 2ZM278 4C279.105 4 280 3.10457 280 2C280 0.895431 279.105 0 278 0C276.895 0 276 0.895431 276 2C276 3.10457 276.895 4 278 4ZM372 2C372 3.10457 371.105 4 370 4C368.895 4 368 3.10457 368 2C368 0.895431 368.895 0 370 0C371.105 0 372 0.895431 372 2ZM462 4C463.105 4 464 3.10457 464 2C464 0.895431 463.105 0 462 0C460.895 0 460 0.895431 460 2C460 3.10457 460.895 4 462 4ZM556 2C556 3.10457 555.105 4 554 4C552.895 4 552 3.10457 552 2C552 0.895431 552.895 0 554 0C555.105 0 556 0.895431 556 2ZM2 96C3.10457 96 4 95.1046 4 94C4 92.8954 3.10457 92 2 92C0.895431 92 0 92.8954 0 94C0 95.1046 0.895431 96 2 96ZM96 94C96 95.1046 95.1046 96 94 96C92.8954 96 92 95.1046 92 94C92 92.8954 92.8954 92 94 92C95.1046 92 96 92.8954 96 94ZM186 96C187.105 96 188 95.1046 188 94C188 92.8954 187.105 92 186 92C184.895 92 184 92.8954 184 94C184 95.1046 184.895 96 186 96ZM280 94C280 95.1046 279.105 96 278 96C276.895 96 276 95.1046 276 94C276 92.8954 276.895 92 278 92C279.105 92 280 92.8954 280 94ZM370 96C371.105 96 372 95.1046 372 94C372 92.8954 371.105 92 370 92C368.895 92 368 92.8954 368 94C368 95.1046 368.895 96 370 96ZM464 94C464 95.1046 463.105 96 462 96C460.895 96 460 95.1046 460 94C460 92.8954 460.895 92 462 92C463.105 92 464 92.8954 464 94ZM554 96C555.105 96 556 95.1046 556 94C556 92.8954 555.105 92 554 92C552.895 92 552 92.8954 552 94C552 95.1046 552.895 96 554 96ZM4 186C4 187.105 3.10457 188 2 188C0.895431 188 0 187.105 0 186C0 184.895 0.895431 184 2 184C3.10457 184 4 184.895 4 186ZM94 188C95.1046 188 96 187.105 96 186C96 184.895 95.1046 184 94 184C92.8954 184 92 184.895 92 186C92 187.105 92.8954 188 94 188ZM188 186C188 187.105 187.105 188 186 188C184.895 188 184 187.105 184 186C184 184.895 184.895 184 186 184C187.105 184 188 184.895 188 186ZM278 188C279.105 188 280 187.105 280 186C280 184.895 279.105 184 278 184C276.895 184 276 184.895 276 186C276 187.105 276.895 188 278 188ZM372 186C372 187.105 371.105 188 370 188C368.895 188 368 187.105 368 186C368 184.895 368.895 184 370 184C371.105 184 372 184.895 372 186ZM462 188C463.105 188 464 187.105 464 186C464 184.895 463.105 184 462 184C460.895 184 460 184.895 460 186C460 187.105 460.895 188 462 188ZM556 186C556 187.105 555.105 188 554 188C552.895 188 552 187.105 552 186C552 184.895 552.895 184 554 184C555.105 184 556 184.895 556 186ZM2 280C3.10457 280 4 279.105 4 278C4 276.895 3.10457 276 2 276C0.895431 276 0 276.895 0 278C0 279.105 0.895431 280 2 280ZM96 278C96 279.105 95.1046 280 94 280C92.8954 280 92 279.105 92 278C92 276.895 92.8954 276 94 276C95.1046 276 96 276.895 96 278ZM186 280C187.105 280 188 279.105 188 278C188 276.895 187.105 276 186 276C184.895 276 184 276.895 184 278C184 279.105 184.895 280 186 280ZM280 278C280 279.105 279.105 280 278 280C276.895 280 276 279.105 276 278C276 276.895 276.895 276 278 276C279.105 276 280 276.895 280 278ZM370 280C371.105 280 372 279.105 372 278C372 276.895 371.105 276 370 276C368.895 276 368 276.895 368 278C368 279.105 368.895 280 370 280ZM464 278C464 279.105 463.105 280 462 280C460.895 280 460 279.105 460 278C460 276.895 460.895 276 462 276C463.105 276 464 276.895 464 278ZM554 280C555.105 280 556 279.105 556 278C556 276.895 555.105 276 554 276C552.895 276 552 276.895 552 278C552 279.105 552.895 280 554 280ZM4 372C4 373.105 3.10457 374 2 374C0.895431 374 0 373.105 0 372C0 370.895 0.895431 370 2 370C3.10457 370 4 370.895 4 372ZM94 374C95.1046 374 96 373.105 96 372C96 370.895 95.1046 370 94 370C92.8954 370 92 370.895 92 372C92 373.105 92.8954 374 94 374ZM188 372C188 373.105 187.105 374 186 374C184.895 374 184 373.105 184 372C184 370.895 184.895 370 186 370C187.105 370 188 370.895 188 372ZM278 374C279.105 374 280 373.105 280 372C280 370.895 279.105 370 278 370C276.895 370 276 370.895 276 372C276 373.105 276.895 374 278 374ZM372 372C372 373.105 371.105 374 370 374C368.895 374 368 373.105 368 372C368 370.895 368.895 370 370 370C371.105 370 372 370.895 372 372ZM462 374C463.105 374 464 373.105 464 372C464 370.895 463.105 370 462 370C460.895 370 460 370.895 460 372C460 373.105 460.895 374 462 374ZM556 372C556 373.105 555.105 374 554 374C552.895 374 552 373.105 552 372C552 370.895 552.895 370 554 370C555.105 370 556 370.895 556 372ZM2 466C3.10457 466 4 465.105 4 464C4 462.895 3.10457 462 2 462C0.895431 462 0 462.895 0 464C0 465.105 0.895431 466 2 466ZM96 464C96 465.105 95.1046 466 94 466C92.8954 466 92 465.105 92 464C92 462.895 92.8954 462 94 462C95.1046 462 96 462.895 96 464ZM186 466C187.105 466 188 465.105 188 464C188 462.895 187.105 462 186 462C184.895 462 184 462.895 184 464C184 465.105 184.895 466 186 466ZM280 464C280 465.105 279.105 466 278 466C276.895 466 276 465.105 276 464C276 462.895 276.895 462 278 462C279.105 462 280 462.895 280 464ZM370 466C371.105 466 372 465.105 372 464C372 462.895 371.105 462 370 462C368.895 462 368 462.895 368 464C368 465.105 368.895 466 370 466ZM464 464C464 465.105 463.105 466 462 466C460.895 466 460 465.105 460 464C460 462.895 460.895 462 462 462C463.105 462 464 462.895 464 464ZM554 466C555.105 466 556 465.105 556 464C556 462.895 555.105 462 554 462C552.895 462 552 462.895 552 464C552 465.105 552.895 466 554 466ZM4 556C4 557.105 3.10457 558 2 558C0.895431 558 0 557.105 0 556C0 554.895 0.895431 554 2 554C3.10457 554 4 554.895 4 556ZM94 558C95.1046 558 96 557.105 96 556C96 554.895 95.1046 554 94 554C92.8954 554 92 554.895 92 556C92 557.105 92.8954 558 94 558ZM188 556C188 557.105 187.105 558 186 558C184.895 558 184 557.105 184 556C184 554.895 184.895 554 186 554C187.105 554 188 554.895 188 556ZM278 558C279.105 558 280 557.105 280 556C280 554.895 279.105 554 278 554C276.895 554 276 554.895 276 556C276 557.105 276.895 558 278 558ZM372 556C372 557.105 371.105 558 370 558C368.895 558 368 557.105 368 556C368 554.895 368.895 554 370 554C371.105 554 372 554.895 372 556ZM462 558C463.105 558 464 557.105 464 556C464 554.895 463.105 554 462 554C460.895 554 460 554.895 460 556C460 557.105 460.895 558 462 558ZM556 556C556 557.105 555.105 558 554 558C552.895 558 552 557.105 552 556C552 554.895 552.895 554 554 554C555.105 554 556 554.895 556 556ZM2 650C3.10457 650 4 649.105 4 648C4 646.895 3.10457 646 2 646C0.895431 646 0 646.895 0 648C0 649.105 0.895431 650 2 650ZM96 648C96 649.105 95.1046 650 94 650C92.8954 650 92 649.105 92 648C92 646.895 92.8954 646 94 646C95.1046 646 96 646.895 96 648ZM186 650C187.105 650 188 649.105 188 648C188 646.895 187.105 646 186 646C184.895 646 184 646.895 184 648C184 649.105 184.895 650 186 650ZM280 648C280 649.105 279.105 650 278 650C276.895 650 276 649.105 276 648C276 646.895 276.895 646 278 646C279.105 646 280 646.895 280 648ZM370 650C371.105 650 372 649.105 372 648C372 646.895 371.105 646 370 646C368.895 646 368 646.895 368 648C368 649.105 368.895 650 370 650ZM464 648C464 649.105 463.105 650 462 650C460.895 650 460 649.105 460 648C460 646.895 460.895 646 462 646C463.105 646 464 646.895 464 648ZM554 650C555.105 650 556 649.105 556 648C556 646.895 555.105 646 554 646C552.895 646 552 646.895 552 648C552 649.105 552.895 650 554 650Z" fill="black"/>
</svg>
