<svg width="60" height="60" viewBox="0 0 60 60" fill="none" xmlns="http://www.w3.org/2000/svg">
<path fill-rule="evenodd" clip-rule="evenodd" d="M27.6523 41.7273H33.036V33.1359C33.036 30.8707 33.4664 28.6771 36.27 28.6771C39.033 28.6771 39.0698 31.2675 39.0698 33.2814V41.7273H44.4546V32.201C44.4546 27.5255 43.4474 23.9283 37.9908 23.9283C35.3694 23.9283 33.6117 25.3678 32.8924 26.7332H32.82V24.3602H27.6523V41.7273ZM21.5793 15.7273C23.3019 15.7273 24.7021 17.1296 24.7021 18.856C24.7021 20.5835 23.3019 21.9861 21.5793 21.9861C19.8522 21.9861 18.4546 20.5835 18.4546 18.856C18.4546 17.1296 19.8522 15.7273 21.5793 15.7273ZM18.8837 41.7273H24.2722V24.3602H18.8837V41.7273Z" fill="white"/>
</svg>
