<svg width="60" height="60" viewBox="0 0 60 60" fill="none" xmlns="http://www.w3.org/2000/svg">
<path fill-rule="evenodd" clip-rule="evenodd" d="M39.8931 23.5903V27.193H36.1947V29.7155H39.8931V33.32H42.6662V29.7155H46.3636V27.1029H42.6662V23.5903H39.8931ZM23.6241 26.3825V30.4366H29.1703C28.8006 32.7789 26.6745 34.4906 23.6241 34.4906C20.2964 34.4906 17.5233 31.6978 17.5233 28.4546C17.5233 25.2113 20.204 22.4186 23.6241 22.4186C25.1955 22.4186 26.4897 22.869 27.5989 23.9501L30.5569 21.0672C28.7081 19.4456 26.3972 18.4546 23.6241 18.4546C17.9855 18.4546 13.3636 22.9591 13.3636 28.4546C13.3636 33.9501 17.9855 38.4546 23.6241 38.4546C29.6325 38.4546 33.5149 34.3104 33.5149 28.6348C33.5149 27.9141 33.4224 27.1032 33.33 26.3825H23.6241Z" fill="white"/>
</svg>
