<svg width="60" height="60" viewBox="0 0 60 60" fill="none" xmlns="http://www.w3.org/2000/svg">
<path fill-rule="evenodd" clip-rule="evenodd" d="M25.8967 41.4546C36.4631 41.4546 42.2415 32.6066 42.2415 24.9344C42.2415 24.683 42.2365 24.4328 42.2251 24.1837C43.3466 23.3643 44.3217 22.3417 45.0909 21.1774C44.0615 21.6396 42.9538 21.9511 41.7918 22.0915C42.9778 21.3728 43.8885 20.2354 44.3179 18.8797C43.2077 19.5447 41.9788 20.0285 40.6703 20.289C39.622 19.1604 38.1291 18.4546 36.477 18.4546C33.3044 18.4546 30.7315 21.0549 30.7315 24.2604C30.7315 24.7161 30.782 25.1592 30.8806 25.5843C26.1064 25.3417 21.8726 23.0311 19.0397 19.5179C18.5459 20.3757 18.2616 21.3728 18.2616 22.4362C18.2616 24.4507 19.2759 26.2289 20.818 27.2693C19.8758 27.24 18.9904 26.9782 18.2162 26.543C18.2149 26.5672 18.2149 26.5914 18.2149 26.6169C18.2149 29.4293 20.1954 31.7769 22.8237 32.3092C22.3412 32.4419 21.8336 32.5135 21.3094 32.5135C20.9393 32.5135 20.5794 32.4764 20.2295 32.4087C20.9607 34.7156 23.0815 36.3942 25.5961 36.4416C23.6296 37.9989 21.1528 38.927 18.4612 38.927C17.9978 38.927 17.5405 38.9002 17.0909 38.8465C19.6333 40.4934 22.6519 41.4546 25.8967 41.4546Z" fill="white"/>
</svg>
